<?xml version="1.0" encoding="utf-8" standalone="no"?>
<!DOCTYPE svg PUBLIC "-//W3C//DTD SVG 1.1//EN"
  "http://www.w3.org/Graphics/SVG/1.1/DTD/svg11.dtd">
<svg xmlns:xlink="http://www.w3.org/1999/xlink" width="764.39952pt" height="238.79952pt" viewBox="0 0 764.39952 238.79952" xmlns="http://www.w3.org/2000/svg" version="1.1">
 <metadata>
  <rdf:RDF xmlns:dc="http://purl.org/dc/elements/1.1/" xmlns:cc="http://creativecommons.org/ns#" xmlns:rdf="http://www.w3.org/1999/02/22-rdf-syntax-ns#">
   <cc:Work>
    <dc:type rdf:resource="http://purl.org/dc/dcmitype/StillImage"/>
    <dc:date>2026-05-01T18:43:59.779346</dc:date>
    <dc:format>image/svg+xml</dc:format>
    <dc:creator>
     <cc:Agent>
      <dc:title>Matplotlib v3.10.9, https://matplotlib.org/</dc:title>
     </cc:Agent>
    </dc:creator>
   </cc:Work>
  </rdf:RDF>
 </metadata>
 <defs>
  <style type="text/css">*{stroke-linejoin: round; stroke-linecap: butt}</style>
 </defs>
 <g id="figure_1">
  <g id="patch_1">
   <path d="M 0 238.79952 
L 764.39952 238.79952 
L 764.39952 -0 
L 0 -0 
z
" style="fill: #ffffff"/>
  </g>
  <g id="axes_1">
   <g id="patch_2">
    <path d="M 38.66875 198.657775 
L 254.616187 198.657775 
L 254.616187 21.649219 
L 38.66875 21.649219 
z
" style="fill: #ffffff"/>
   </g>
   <g id="matplotlib.axis_1">
    <g id="xtick_1">
     <g id="line2d_1">
      <path d="M 46.858514 198.657775 
L 46.858514 21.649219 
" clip-path="url(#p8ed00891f3)" style="fill: none; stroke: #b0b0b0; stroke-opacity: 0.22; stroke-width: 0.8; stroke-linecap: square"/>
     </g>
     <g id="line2d_2">
      <defs>
       <path id="m4d583b0b7e" d="M 0 0 
L 0 3.5 
" style="stroke: #000000; stroke-width: 0.8"/>
      </defs>
      <g>
       <use xlink:href="#m4d583b0b7e" x="46.858514" y="198.657775" style="stroke: #000000; stroke-width: 0.8"/>
      </g>
     </g>
     <g id="text_1">
      <!-- 2016 -->
      <g transform="translate(40.16522 218.138521) rotate(-25) scale(0.085 -0.085)">
       <defs>
        <path id="SimHei-32" d="M 300 250 
Q 325 625 650 925 
Q 975 1225 1475 1862 
Q 1975 2500 2125 2850 
Q 2275 3200 2237 3450 
Q 2200 3700 2000 3862 
Q 1800 4025 1537 4000 
Q 1275 3975 1037 3800 
Q 800 3625 675 3275 
L 200 3350 
Q 400 3925 712 4187 
Q 1025 4450 1450 4475 
Q 1700 4500 1900 4462 
Q 2100 4425 2312 4287 
Q 2525 4150 2662 3875 
Q 2800 3600 2762 3212 
Q 2725 2825 2375 2287 
Q 2025 1750 1025 600 
L 2825 600 
L 2825 150 
L 300 150 
L 300 250 
z
" transform="scale(0.015625)"/>
        <path id="SimHei-30" d="M 225 2537 
Q 250 3200 412 3587 
Q 575 3975 875 4225 
Q 1175 4475 1612 4475 
Q 2050 4475 2375 4112 
Q 2700 3750 2800 3200 
Q 2900 2650 2862 1937 
Q 2825 1225 2612 775 
Q 2400 325 1975 150 
Q 1550 -25 1125 187 
Q 700 400 525 750 
Q 350 1100 275 1487 
Q 200 1875 225 2537 
z
M 750 2687 
Q 675 2000 800 1462 
Q 925 925 1212 700 
Q 1500 475 1800 612 
Q 2100 750 2237 1162 
Q 2375 1575 2375 2062 
Q 2375 2550 2337 2950 
Q 2300 3350 2112 3675 
Q 1925 4000 1612 4012 
Q 1300 4025 1062 3700 
Q 825 3375 750 2687 
z
" transform="scale(0.015625)"/>
        <path id="SimHei-31" d="M 1400 3600 
Q 1075 3275 575 2975 
L 575 3450 
Q 1200 3875 1600 4450 
L 1900 4450 
L 1900 150 
L 1400 150 
L 1400 3600 
z
" transform="scale(0.015625)"/>
        <path id="SimHei-36" d="M 250 1612 
Q 275 1975 387 2225 
Q 500 2475 725 2850 
L 1750 4450 
L 2325 4450 
L 1275 2800 
Q 1950 2975 2350 2750 
Q 2750 2525 2887 2237 
Q 3025 1950 3037 1612 
Q 3050 1275 2937 950 
Q 2825 625 2537 362 
Q 2250 100 1737 75 
Q 1225 50 862 262 
Q 500 475 362 862 
Q 225 1250 250 1612 
z
M 1025 787 
Q 1250 550 1625 525 
Q 2000 500 2250 775 
Q 2500 1050 2500 1575 
Q 2500 2100 2187 2300 
Q 1875 2500 1487 2450 
Q 1100 2400 925 2075 
Q 750 1750 775 1387 
Q 800 1025 1025 787 
z
" transform="scale(0.015625)"/>
       </defs>
       <use xlink:href="#SimHei-32"/>
       <use xlink:href="#SimHei-30" transform="translate(50 0)"/>
       <use xlink:href="#SimHei-31" transform="translate(100 0)"/>
       <use xlink:href="#SimHei-36" transform="translate(150 0)"/>
      </g>
     </g>
    </g>
    <g id="xtick_2">
     <g id="line2d_3">
      <path d="M 66.696063 198.657775 
L 66.696063 21.649219 
" clip-path="url(#p8ed00891f3)" style="fill: none; stroke: #b0b0b0; stroke-opacity: 0.22; stroke-width: 0.8; stroke-linecap: square"/>
     </g>
     <g id="line2d_4">
      <g>
       <use xlink:href="#m4d583b0b7e" x="66.696063" y="198.657775" style="stroke: #000000; stroke-width: 0.8"/>
      </g>
     </g>
     <g id="text_2">
      <!-- 2017 -->
      <g transform="translate(60.002768 218.138521) rotate(-25) scale(0.085 -0.085)">
       <defs>
        <path id="SimHei-37" d="M 850 150 
Q 1300 2050 2425 3925 
L 275 3925 
L 275 4375 
L 2950 4375 
L 2950 3950 
Q 1775 2050 1400 150 
L 850 150 
z
" transform="scale(0.015625)"/>
       </defs>
       <use xlink:href="#SimHei-32"/>
       <use xlink:href="#SimHei-30" transform="translate(50 0)"/>
       <use xlink:href="#SimHei-31" transform="translate(100 0)"/>
       <use xlink:href="#SimHei-37" transform="translate(150 0)"/>
      </g>
     </g>
    </g>
    <g id="xtick_3">
     <g id="line2d_5">
      <path d="M 86.479411 198.657775 
L 86.479411 21.649219 
" clip-path="url(#p8ed00891f3)" style="fill: none; stroke: #b0b0b0; stroke-opacity: 0.22; stroke-width: 0.8; stroke-linecap: square"/>
     </g>
     <g id="line2d_6">
      <g>
       <use xlink:href="#m4d583b0b7e" x="86.479411" y="198.657775" style="stroke: #000000; stroke-width: 0.8"/>
      </g>
     </g>
     <g id="text_3">
      <!-- 2018 -->
      <g transform="translate(79.786116 218.138521) rotate(-25) scale(0.085 -0.085)">
       <defs>
        <path id="SimHei-38" d="M 175 1375 
Q 175 1675 325 1962 
Q 475 2250 825 2425 
Q 525 2600 425 2812 
Q 325 3025 312 3300 
Q 300 3575 387 3775 
Q 475 3975 650 4150 
Q 825 4325 1037 4387 
Q 1250 4450 1500 4450 
Q 1750 4450 1950 4400 
Q 2150 4350 2375 4187 
Q 2600 4025 2700 3725 
Q 2800 3425 2687 3025 
Q 2575 2625 2100 2400 
Q 2525 2275 2700 2012 
Q 2875 1750 2875 1375 
Q 2875 1000 2762 775 
Q 2650 550 2512 400 
Q 2375 250 2137 162 
Q 1900 75 1537 75 
Q 1175 75 912 162 
Q 650 250 475 425 
Q 300 600 237 837 
Q 175 1075 175 1375 
z
M 687 1400 
Q 675 1100 787 875 
Q 900 650 1200 587 
Q 1500 525 1825 600 
Q 2150 675 2275 950 
Q 2400 1225 2362 1500 
Q 2325 1775 2050 1962 
Q 1775 2150 1450 2125 
Q 1125 2100 912 1900 
Q 700 1700 687 1400 
z
M 775 3350 
Q 775 3100 950 2875 
Q 1125 2650 1500 2650 
Q 1875 2650 2062 2875 
Q 2250 3100 2237 3412 
Q 2225 3725 2012 3875 
Q 1800 4025 1437 4000 
Q 1075 3975 925 3787 
Q 775 3600 775 3350 
z
" transform="scale(0.015625)"/>
       </defs>
       <use xlink:href="#SimHei-32"/>
       <use xlink:href="#SimHei-30" transform="translate(50 0)"/>
       <use xlink:href="#SimHei-31" transform="translate(100 0)"/>
       <use xlink:href="#SimHei-38" transform="translate(150 0)"/>
      </g>
     </g>
    </g>
    <g id="xtick_4">
     <g id="line2d_7">
      <path d="M 106.262758 198.657775 
L 106.262758 21.649219 
" clip-path="url(#p8ed00891f3)" style="fill: none; stroke: #b0b0b0; stroke-opacity: 0.22; stroke-width: 0.8; stroke-linecap: square"/>
     </g>
     <g id="line2d_8">
      <g>
       <use xlink:href="#m4d583b0b7e" x="106.262758" y="198.657775" style="stroke: #000000; stroke-width: 0.8"/>
      </g>
     </g>
     <g id="text_4">
      <!-- 2019 -->
      <g transform="translate(99.569464 218.138521) rotate(-25) scale(0.085 -0.085)">
       <defs>
        <path id="SimHei-39" d="M 800 75 
Q 1350 1000 1700 1750 
Q 1075 1650 662 1912 
Q 250 2175 162 2625 
Q 75 3075 175 3437 
Q 275 3800 487 4037 
Q 700 4275 1000 4375 
Q 1300 4475 1537 4475 
Q 1775 4475 2025 4375 
Q 2275 4275 2475 4075 
Q 2675 3875 2750 3662 
Q 2825 3450 2825 3112 
Q 2825 2775 2575 2250 
Q 2325 1725 1350 75 
L 800 75 
z
M 662 2875 
Q 700 2550 937 2337 
Q 1175 2125 1450 2150 
Q 1725 2175 1887 2300 
Q 2050 2425 2200 2725 
Q 2300 3100 2250 3362 
Q 2200 3625 1987 3800 
Q 1775 3975 1525 3975 
Q 1375 4000 1137 3900 
Q 900 3800 762 3500 
Q 625 3200 662 2875 
z
" transform="scale(0.015625)"/>
       </defs>
       <use xlink:href="#SimHei-32"/>
       <use xlink:href="#SimHei-30" transform="translate(50 0)"/>
       <use xlink:href="#SimHei-31" transform="translate(100 0)"/>
       <use xlink:href="#SimHei-39" transform="translate(150 0)"/>
      </g>
     </g>
    </g>
    <g id="xtick_5">
     <g id="line2d_9">
      <path d="M 126.046106 198.657775 
L 126.046106 21.649219 
" clip-path="url(#p8ed00891f3)" style="fill: none; stroke: #b0b0b0; stroke-opacity: 0.22; stroke-width: 0.8; stroke-linecap: square"/>
     </g>
     <g id="line2d_10">
      <g>
       <use xlink:href="#m4d583b0b7e" x="126.046106" y="198.657775" style="stroke: #000000; stroke-width: 0.8"/>
      </g>
     </g>
     <g id="text_5">
      <!-- 2020 -->
      <g transform="translate(119.352812 218.138521) rotate(-25) scale(0.085 -0.085)">
       <use xlink:href="#SimHei-32"/>
       <use xlink:href="#SimHei-30" transform="translate(50 0)"/>
       <use xlink:href="#SimHei-32" transform="translate(100 0)"/>
       <use xlink:href="#SimHei-30" transform="translate(150 0)"/>
      </g>
     </g>
    </g>
    <g id="xtick_6">
     <g id="line2d_11">
      <path d="M 145.883655 198.657775 
L 145.883655 21.649219 
" clip-path="url(#p8ed00891f3)" style="fill: none; stroke: #b0b0b0; stroke-opacity: 0.22; stroke-width: 0.8; stroke-linecap: square"/>
     </g>
     <g id="line2d_12">
      <g>
       <use xlink:href="#m4d583b0b7e" x="145.883655" y="198.657775" style="stroke: #000000; stroke-width: 0.8"/>
      </g>
     </g>
     <g id="text_6">
      <!-- 2021 -->
      <g transform="translate(139.190361 218.138521) rotate(-25) scale(0.085 -0.085)">
       <use xlink:href="#SimHei-32"/>
       <use xlink:href="#SimHei-30" transform="translate(50 0)"/>
       <use xlink:href="#SimHei-32" transform="translate(100 0)"/>
       <use xlink:href="#SimHei-31" transform="translate(150 0)"/>
      </g>
     </g>
    </g>
    <g id="xtick_7">
     <g id="line2d_13">
      <path d="M 165.667003 198.657775 
L 165.667003 21.649219 
" clip-path="url(#p8ed00891f3)" style="fill: none; stroke: #b0b0b0; stroke-opacity: 0.22; stroke-width: 0.8; stroke-linecap: square"/>
     </g>
     <g id="line2d_14">
      <g>
       <use xlink:href="#m4d583b0b7e" x="165.667003" y="198.657775" style="stroke: #000000; stroke-width: 0.8"/>
      </g>
     </g>
     <g id="text_7">
      <!-- 2022 -->
      <g transform="translate(158.973708 218.138521) rotate(-25) scale(0.085 -0.085)">
       <use xlink:href="#SimHei-32"/>
       <use xlink:href="#SimHei-30" transform="translate(50 0)"/>
       <use xlink:href="#SimHei-32" transform="translate(100 0)"/>
       <use xlink:href="#SimHei-32" transform="translate(150 0)"/>
      </g>
     </g>
    </g>
    <g id="xtick_8">
     <g id="line2d_15">
      <path d="M 185.450351 198.657775 
L 185.450351 21.649219 
" clip-path="url(#p8ed00891f3)" style="fill: none; stroke: #b0b0b0; stroke-opacity: 0.22; stroke-width: 0.8; stroke-linecap: square"/>
     </g>
     <g id="line2d_16">
      <g>
       <use xlink:href="#m4d583b0b7e" x="185.450351" y="198.657775" style="stroke: #000000; stroke-width: 0.8"/>
      </g>
     </g>
     <g id="text_8">
      <!-- 2023 -->
      <g transform="translate(178.757056 218.138521) rotate(-25) scale(0.085 -0.085)">
       <defs>
        <path id="SimHei-33" d="M 250 1225 
L 700 1300 
Q 800 975 1025 762 
Q 1250 550 1587 562 
Q 1925 575 2125 837 
Q 2325 1100 2300 1437 
Q 2275 1775 2037 1962 
Q 1800 2150 1275 2225 
L 1275 2550 
Q 1800 2600 2037 2825 
Q 2275 3050 2250 3412 
Q 2225 3775 1925 3937 
Q 1625 4100 1287 3975 
Q 950 3850 750 3275 
L 300 3350 
Q 450 3800 712 4100 
Q 975 4400 1425 4450 
Q 1875 4500 2212 4337 
Q 2550 4175 2687 3837 
Q 2825 3500 2725 3100 
Q 2625 2700 2150 2400 
Q 2500 2250 2687 1950 
Q 2875 1650 2812 1162 
Q 2750 675 2375 375 
Q 2000 75 1525 87 
Q 1050 100 700 387 
Q 350 675 250 1225 
z
" transform="scale(0.015625)"/>
       </defs>
       <use xlink:href="#SimHei-32"/>
       <use xlink:href="#SimHei-30" transform="translate(50 0)"/>
       <use xlink:href="#SimHei-32" transform="translate(100 0)"/>
       <use xlink:href="#SimHei-33" transform="translate(150 0)"/>
      </g>
     </g>
    </g>
    <g id="xtick_9">
     <g id="line2d_17">
      <path d="M 205.233698 198.657775 
L 205.233698 21.649219 
" clip-path="url(#p8ed00891f3)" style="fill: none; stroke: #b0b0b0; stroke-opacity: 0.22; stroke-width: 0.8; stroke-linecap: square"/>
     </g>
     <g id="line2d_18">
      <g>
       <use xlink:href="#m4d583b0b7e" x="205.233698" y="198.657775" style="stroke: #000000; stroke-width: 0.8"/>
      </g>
     </g>
     <g id="text_9">
      <!-- 2024 -->
      <g transform="translate(198.540404 218.138521) rotate(-25) scale(0.085 -0.085)">
       <defs>
        <path id="SimHei-34" d="M 2000 1100 
L 75 1100 
L 75 1525 
L 2100 4450 
L 2475 4450 
L 2475 1525 
L 3075 1525 
L 3075 1100 
L 2475 1100 
L 2475 150 
L 2000 150 
L 2000 1100 
z
M 2000 1525 
L 2000 3500 
L 600 1525 
L 2000 1525 
z
" transform="scale(0.015625)"/>
       </defs>
       <use xlink:href="#SimHei-32"/>
       <use xlink:href="#SimHei-30" transform="translate(50 0)"/>
       <use xlink:href="#SimHei-32" transform="translate(100 0)"/>
       <use xlink:href="#SimHei-34" transform="translate(150 0)"/>
      </g>
     </g>
    </g>
    <g id="xtick_10">
     <g id="line2d_19">
      <path d="M 225.071247 198.657775 
L 225.071247 21.649219 
" clip-path="url(#p8ed00891f3)" style="fill: none; stroke: #b0b0b0; stroke-opacity: 0.22; stroke-width: 0.8; stroke-linecap: square"/>
     </g>
     <g id="line2d_20">
      <g>
       <use xlink:href="#m4d583b0b7e" x="225.071247" y="198.657775" style="stroke: #000000; stroke-width: 0.8"/>
      </g>
     </g>
     <g id="text_10">
      <!-- 2025 -->
      <g transform="translate(218.377953 218.138521) rotate(-25) scale(0.085 -0.085)">
       <defs>
        <path id="SimHei-35" d="M 550 1325 
Q 725 650 1150 575 
Q 1575 500 1837 662 
Q 2100 825 2212 1087 
Q 2325 1350 2312 1675 
Q 2300 2000 2137 2225 
Q 1975 2450 1725 2525 
Q 1475 2600 1162 2525 
Q 850 2450 650 2175 
L 225 2225 
Q 275 2375 700 4375 
L 2675 4375 
L 2675 3925 
L 1075 3925 
Q 950 3250 825 2850 
Q 1200 3025 1525 3012 
Q 1850 3000 2150 2862 
Q 2450 2725 2587 2487 
Q 2725 2250 2787 2012 
Q 2850 1775 2837 1500 
Q 2825 1225 2725 937 
Q 2625 650 2425 462 
Q 2225 275 1937 162 
Q 1650 50 1275 75 
Q 900 100 562 350 
Q 225 600 100 1200 
L 550 1325 
z
" transform="scale(0.015625)"/>
       </defs>
       <use xlink:href="#SimHei-32"/>
       <use xlink:href="#SimHei-30" transform="translate(50 0)"/>
       <use xlink:href="#SimHei-32" transform="translate(100 0)"/>
       <use xlink:href="#SimHei-35" transform="translate(150 0)"/>
      </g>
     </g>
    </g>
    <g id="xtick_11">
     <g id="line2d_21">
      <path d="M 244.854595 198.657775 
L 244.854595 21.649219 
" clip-path="url(#p8ed00891f3)" style="fill: none; stroke: #b0b0b0; stroke-opacity: 0.22; stroke-width: 0.8; stroke-linecap: square"/>
     </g>
     <g id="line2d_22">
      <g>
       <use xlink:href="#m4d583b0b7e" x="244.854595" y="198.657775" style="stroke: #000000; stroke-width: 0.8"/>
      </g>
     </g>
     <g id="text_11">
      <!-- 2026 -->
      <g transform="translate(238.161301 218.138521) rotate(-25) scale(0.085 -0.085)">
       <use xlink:href="#SimHei-32"/>
       <use xlink:href="#SimHei-30" transform="translate(50 0)"/>
       <use xlink:href="#SimHei-32" transform="translate(100 0)"/>
       <use xlink:href="#SimHei-36" transform="translate(150 0)"/>
      </g>
     </g>
    </g>
    <g id="text_12">
     <!-- 日期 -->
     <g transform="translate(137.142468 230.41202) scale(0.095 -0.095)">
      <defs>
       <path id="SimHei-65e5" d="M 5375 5000 
Q 5350 3775 5350 2275 
Q 5350 775 5375 -450 
L 4800 -450 
L 4800 175 
L 1800 175 
L 1800 -575 
L 1250 -575 
Q 1275 575 1275 2125 
Q 1275 3675 1250 5000 
L 5375 5000 
z
M 4800 600 
L 4800 2375 
L 1800 2375 
L 1800 600 
L 4800 600 
z
M 4800 2800 
L 4800 4550 
L 1800 4550 
L 1800 2800 
L 4800 2800 
z
" transform="scale(0.015625)"/>
       <path id="SimHei-671f" d="M 4900 -25 
Q 5475 -100 5425 175 
L 5425 1575 
L 4325 1575 
Q 4275 975 4050 425 
Q 3825 -125 3400 -600 
Q 3225 -375 2925 -275 
Q 3350 150 3562 625 
Q 3775 1100 3812 1575 
Q 3850 2050 3850 3125 
Q 3850 4225 3825 4875 
L 5950 4875 
Q 5925 4400 5925 3725 
L 5925 50 
Q 5925 -300 5700 -425 
Q 5475 -550 5100 -600 
Q 5100 -325 4900 -25 
z
M 950 4300 
Q 950 4675 925 5125 
L 1450 5125 
Q 1425 4625 1425 4300 
L 2550 4300 
Q 2550 4775 2525 5125 
L 3075 5125 
Q 3050 4700 3050 4300 
Q 3225 4300 3500 4325 
L 3500 3900 
Q 3250 3925 3050 3925 
L 3050 1550 
Q 3250 1550 3500 1575 
L 3500 1150 
Q 3025 1175 2575 1175 
L 1225 1175 
Q 675 1175 275 1150 
L 275 1575 
Q 650 1550 950 1550 
L 950 3925 
Q 725 3925 425 3900 
L 425 4325 
Q 700 4300 950 4300 
z
M 5425 3375 
L 5425 4500 
L 4350 4500 
L 4350 3375 
L 5425 3375 
z
M 5425 1950 
L 5425 3000 
L 4350 3000 
L 4350 1950 
L 5425 1950 
z
M 1600 725 
Q 1425 650 1162 287 
Q 900 -75 650 -350 
Q 400 -175 225 -75 
Q 450 100 700 412 
Q 950 725 1100 1025 
L 1600 725 
z
M 2550 3375 
L 2550 3925 
L 1425 3925 
L 1425 3375 
L 2550 3375 
z
M 2550 1550 
L 2550 2100 
L 1425 2100 
L 1425 1550 
L 2550 1550 
z
M 2550 2475 
L 2550 3000 
L 1425 3000 
L 1425 2475 
L 2550 2475 
z
M 2850 -75 
Q 2450 525 2225 725 
Q 2375 825 2550 1025 
Q 2850 725 3250 275 
Q 3050 125 2850 -75 
z
" transform="scale(0.015625)"/>
      </defs>
      <use xlink:href="#SimHei-65e5"/>
      <use xlink:href="#SimHei-671f" transform="translate(100 0)"/>
     </g>
    </g>
   </g>
   <g id="matplotlib.axis_2">
    <g id="ytick_1">
     <g id="line2d_23">
      <path d="M 38.66875 191.628608 
L 254.616187 191.628608 
" clip-path="url(#p8ed00891f3)" style="fill: none; stroke: #b0b0b0; stroke-opacity: 0.22; stroke-width: 0.8; stroke-linecap: square"/>
     </g>
     <g id="line2d_24">
      <defs>
       <path id="m1a3a2ddd9f" d="M 0 0 
L -3.5 0 
" style="stroke: #000000; stroke-width: 0.8"/>
      </defs>
      <g>
       <use xlink:href="#m1a3a2ddd9f" x="38.66875" y="191.628608" style="stroke: #000000; stroke-width: 0.8"/>
      </g>
     </g>
     <g id="text_13">
      <!-- -15 -->
      <g transform="translate(18.91875 194.550483) scale(0.085 -0.085)">
       <defs>
        <path id="SimHei-2d" d="M 2975 2125 
L 125 2125 
L 125 2525 
L 2975 2525 
L 2975 2125 
z
" transform="scale(0.015625)"/>
       </defs>
       <use xlink:href="#SimHei-2d"/>
       <use xlink:href="#SimHei-31" transform="translate(50 0)"/>
       <use xlink:href="#SimHei-35" transform="translate(100 0)"/>
      </g>
     </g>
    </g>
    <g id="ytick_2">
     <g id="line2d_25">
      <path d="M 38.66875 168.938875 
L 254.616187 168.938875 
" clip-path="url(#p8ed00891f3)" style="fill: none; stroke: #b0b0b0; stroke-opacity: 0.22; stroke-width: 0.8; stroke-linecap: square"/>
     </g>
     <g id="line2d_26">
      <g>
       <use xlink:href="#m1a3a2ddd9f" x="38.66875" y="168.938875" style="stroke: #000000; stroke-width: 0.8"/>
      </g>
     </g>
     <g id="text_14">
      <!-- -10 -->
      <g transform="translate(18.91875 171.86075) scale(0.085 -0.085)">
       <use xlink:href="#SimHei-2d"/>
       <use xlink:href="#SimHei-31" transform="translate(50 0)"/>
       <use xlink:href="#SimHei-30" transform="translate(100 0)"/>
      </g>
     </g>
    </g>
    <g id="ytick_3">
     <g id="line2d_27">
      <path d="M 38.66875 146.249142 
L 254.616187 146.249142 
" clip-path="url(#p8ed00891f3)" style="fill: none; stroke: #b0b0b0; stroke-opacity: 0.22; stroke-width: 0.8; stroke-linecap: square"/>
     </g>
     <g id="line2d_28">
      <g>
       <use xlink:href="#m1a3a2ddd9f" x="38.66875" y="146.249142" style="stroke: #000000; stroke-width: 0.8"/>
      </g>
     </g>
     <g id="text_15">
      <!-- -5 -->
      <g transform="translate(23.16875 149.171017) scale(0.085 -0.085)">
       <use xlink:href="#SimHei-2d"/>
       <use xlink:href="#SimHei-35" transform="translate(50 0)"/>
      </g>
     </g>
    </g>
    <g id="ytick_4">
     <g id="line2d_29">
      <path d="M 38.66875 123.559408 
L 254.616187 123.559408 
" clip-path="url(#p8ed00891f3)" style="fill: none; stroke: #b0b0b0; stroke-opacity: 0.22; stroke-width: 0.8; stroke-linecap: square"/>
     </g>
     <g id="line2d_30">
      <g>
       <use xlink:href="#m1a3a2ddd9f" x="38.66875" y="123.559408" style="stroke: #000000; stroke-width: 0.8"/>
      </g>
     </g>
     <g id="text_16">
      <!-- 0 -->
      <g transform="translate(27.41875 126.481283) scale(0.085 -0.085)">
       <use xlink:href="#SimHei-30"/>
      </g>
     </g>
    </g>
    <g id="ytick_5">
     <g id="line2d_31">
      <path d="M 38.66875 100.869675 
L 254.616187 100.869675 
" clip-path="url(#p8ed00891f3)" style="fill: none; stroke: #b0b0b0; stroke-opacity: 0.22; stroke-width: 0.8; stroke-linecap: square"/>
     </g>
     <g id="line2d_32">
      <g>
       <use xlink:href="#m1a3a2ddd9f" x="38.66875" y="100.869675" style="stroke: #000000; stroke-width: 0.8"/>
      </g>
     </g>
     <g id="text_17">
      <!-- 5 -->
      <g transform="translate(27.41875 103.79155) scale(0.085 -0.085)">
       <use xlink:href="#SimHei-35"/>
      </g>
     </g>
    </g>
    <g id="ytick_6">
     <g id="line2d_33">
      <path d="M 38.66875 78.179942 
L 254.616187 78.179942 
" clip-path="url(#p8ed00891f3)" style="fill: none; stroke: #b0b0b0; stroke-opacity: 0.22; stroke-width: 0.8; stroke-linecap: square"/>
     </g>
     <g id="line2d_34">
      <g>
       <use xlink:href="#m1a3a2ddd9f" x="38.66875" y="78.179942" style="stroke: #000000; stroke-width: 0.8"/>
      </g>
     </g>
     <g id="text_18">
      <!-- 10 -->
      <g transform="translate(23.16875 81.101817) scale(0.085 -0.085)">
       <use xlink:href="#SimHei-31"/>
       <use xlink:href="#SimHei-30" transform="translate(50 0)"/>
      </g>
     </g>
    </g>
    <g id="ytick_7">
     <g id="line2d_35">
      <path d="M 38.66875 55.490208 
L 254.616187 55.490208 
" clip-path="url(#p8ed00891f3)" style="fill: none; stroke: #b0b0b0; stroke-opacity: 0.22; stroke-width: 0.8; stroke-linecap: square"/>
     </g>
     <g id="line2d_36">
      <g>
       <use xlink:href="#m1a3a2ddd9f" x="38.66875" y="55.490208" style="stroke: #000000; stroke-width: 0.8"/>
      </g>
     </g>
     <g id="text_19">
      <!-- 15 -->
      <g transform="translate(23.16875 58.412083) scale(0.085 -0.085)">
       <use xlink:href="#SimHei-31"/>
       <use xlink:href="#SimHei-35" transform="translate(50 0)"/>
      </g>
     </g>
    </g>
    <g id="ytick_8">
     <g id="line2d_37">
      <path d="M 38.66875 32.800475 
L 254.616187 32.800475 
" clip-path="url(#p8ed00891f3)" style="fill: none; stroke: #b0b0b0; stroke-opacity: 0.22; stroke-width: 0.8; stroke-linecap: square"/>
     </g>
     <g id="line2d_38">
      <g>
       <use xlink:href="#m1a3a2ddd9f" x="38.66875" y="32.800475" style="stroke: #000000; stroke-width: 0.8"/>
      </g>
     </g>
     <g id="text_20">
      <!-- 20 -->
      <g transform="translate(23.16875 35.72235) scale(0.085 -0.085)">
       <use xlink:href="#SimHei-32"/>
       <use xlink:href="#SimHei-30" transform="translate(50 0)"/>
      </g>
     </g>
    </g>
    <g id="text_21">
     <!-- % -->
     <g transform="translate(13.73125 112.528497) rotate(-90) scale(0.095 -0.095)">
      <defs>
       <path id="SimHei-25" d="M 1400 3325 
Q 1400 2600 1187 2400 
Q 975 2200 775 2200 
Q 575 2200 362 2400 
Q 150 2600 150 3325 
Q 150 4050 362 4250 
Q 575 4450 775 4450 
Q 975 4450 1187 4250 
Q 1400 4050 1400 3325 
z
M 2625 4375 
L 700 75 
L 500 150 
L 2425 4450 
L 2625 4375 
z
M 2975 1200 
Q 2975 475 2762 275 
Q 2550 75 2350 75 
Q 2150 75 1937 275 
Q 1725 475 1725 1200 
Q 1725 1925 1937 2125 
Q 2150 2325 2350 2325 
Q 2550 2325 2762 2125 
Q 2975 1925 2975 1200 
z
M 1000 3325 
Q 1000 3775 950 3925 
Q 900 4075 775 4075 
Q 650 4075 600 3925 
Q 550 3775 550 3325 
Q 550 2875 600 2725 
Q 650 2575 775 2575 
Q 900 2575 950 2725 
Q 1000 2875 1000 3325 
z
M 2575 1200 
Q 2575 1650 2525 1800 
Q 2475 1950 2350 1950 
Q 2225 1950 2175 1800 
Q 2125 1650 2125 1200 
Q 2125 750 2175 600 
Q 2225 450 2350 450 
Q 2475 450 2525 600 
Q 2575 750 2575 1200 
z
" transform="scale(0.015625)"/>
      </defs>
      <use xlink:href="#SimHei-25"/>
     </g>
    </g>
   </g>
   <g id="line2d_39">
    <path d="M 48.484543 125.456898 
L 50.05637 119.071149 
L 51.7366 171.785362 
L 53.362628 74.955388 
L 55.042858 96.359295 
L 56.668886 110.605388 
L 58.349116 124.438018 
L 60.029346 93.966297 
L 61.655374 129.0065 
L 63.335604 136.855144 
L 64.961632 125.721159 
L 66.641862 119.928615 
L 68.322091 111.740795 
L 69.839718 138.147377 
L 71.519948 120.873709 
L 73.145976 110.041252 
L 74.826206 119.395469 
L 76.452234 86.326882 
L 78.132464 133.834018 
L 79.812693 179.705575 
L 81.438722 113.52585 
L 83.118951 120.175641 
L 84.74498 123.94402 
L 86.42521 120.550565 
L 88.105439 115.212929 
L 89.623066 59.057302 
L 91.303295 118.692041 
L 92.929324 81.603456 
L 94.609554 148.740669 
L 96.235582 113.239658 
L 97.915812 159.41865 
L 99.596041 90.495309 
L 101.22207 101.127346 
L 102.902299 102.471106 
L 104.528328 130.682156 
L 106.208557 119.627873 
L 107.888787 136.853057 
L 109.406414 155.820413 
L 111.086643 101.988843 
L 112.712672 90.507137 
L 114.392901 107.671578 
L 116.01893 101.162902 
L 117.699159 128.252203 
L 119.379389 96.289236 
L 121.005418 75.354976 
L 122.685647 113.05952 
L 124.311676 59.295742 
L 125.991905 130.249575 
L 127.672135 69.394992 
L 129.243962 29.695062 
L 130.924192 77.491208 
L 132.550221 93.619567 
L 134.23045 142.775848 
L 135.856479 81.388059 
L 137.536708 139.683989 
L 139.216938 140.213406 
L 140.842966 110.173257 
L 142.523196 117.69639 
L 144.149224 88.779553 
L 145.829454 110.754481 
L 147.509684 129.768393 
L 149.02731 135.895941 
L 150.70754 130.121509 
L 152.333568 161.381967 
L 154.013798 132.416175 
L 155.639827 76.557661 
L 157.320056 124.883735 
L 159.000286 115.798632 
L 160.626314 190.611931 
L 162.306544 109.21406 
L 163.932572 159.09767 
L 165.612802 140.122668 
L 167.293031 57.747903 
L 168.810658 130.196658 
L 170.490888 90.905401 
L 172.116916 125.665344 
L 173.797146 139.669154 
L 175.423174 130.630949 
L 177.103404 88.43616 
L 178.783633 122.11229 
L 180.409662 81.764561 
L 182.089892 131.739479 
L 183.71592 117.764934 
L 185.39615 106.799024 
L 187.076379 107.851806 
L 188.594006 137.951048 
L 190.274235 140.954477 
L 191.900264 115.20145 
L 193.580494 132.349119 
L 195.206522 102.418647 
L 196.886752 111.101747 
L 198.566981 161.292717 
L 200.19301 152.113336 
L 201.873239 161.812183 
L 203.499268 116.061894 
L 205.179497 71.039355 
L 206.859727 136.001091 
L 208.431555 120.660128 
L 210.111784 162.084174 
L 211.737813 156.619239 
L 213.418042 182.926394 
L 215.044071 127.181198 
L 216.7243 103.629289 
L 218.40453 134.038479 
L 220.030559 82.507998 
L 221.710788 117.002156 
L 223.336817 128.64516 
L 225.017046 115.563178 
L 226.697276 120.911955 
L 228.214902 94.791197 
L 229.895132 140.782051 
L 231.521161 154.840651 
L 233.20139 99.421193 
L 234.827419 117.118537 
L 236.507648 96.570134 
L 238.187878 94.2439 
L 239.813906 137.784717 
L 241.494136 92.926186 
L 243.120165 91.905396 
L 244.800394 84.573963 
" clip-path="url(#p8ed00891f3)" style="fill: none; stroke: #1a3a6b; stroke-width: 1.4; stroke-linecap: square"/>
   </g>
   <g id="line2d_40">
    <path d="M 38.66875 123.559408 
L 254.616187 123.559408 
" clip-path="url(#p8ed00891f3)" style="fill: none; stroke: #777777; stroke-linecap: square"/>
   </g>
   <g id="patch_3">
    <path d="M 38.66875 198.657775 
L 38.66875 21.649219 
" style="fill: none; stroke: #000000; stroke-width: 0.8; stroke-linejoin: miter; stroke-linecap: square"/>
   </g>
   <g id="patch_4">
    <path d="M 38.66875 198.657775 
L 254.616187 198.657775 
" style="fill: none; stroke: #000000; stroke-width: 0.8; stroke-linejoin: miter; stroke-linecap: square"/>
   </g>
   <g id="text_22">
    <!-- (a) 月度收益率 -->
    <g transform="translate(109.892468 15.649219) scale(0.105 -0.105)">
     <defs>
      <path id="SimHei-28" d="M 2975 -200 
L 2700 -475 
Q 2075 125 1762 775 
Q 1450 1425 1450 2250 
Q 1450 3075 1762 3725 
Q 2075 4375 2700 5000 
L 2975 4725 
Q 2400 4175 2112 3587 
Q 1825 3000 1825 2250 
Q 1825 1500 2112 912 
Q 2400 325 2975 -200 
z
" transform="scale(0.015625)"/>
      <path id="SimHei-61" d="M 2875 125 
L 2275 125 
Q 2225 175 2200 262 
Q 2175 350 2175 475 
Q 2000 275 1750 175 
Q 1500 75 1225 75 
Q 825 75 550 275 
Q 275 475 275 850 
Q 275 1225 525 1450 
Q 775 1675 1300 1750 
Q 1650 1800 1912 1875 
Q 2175 1950 2175 2075 
Q 2175 2225 2062 2375 
Q 1950 2525 1575 2525 
Q 1275 2525 1137 2412 
Q 1000 2300 950 2100 
L 400 2100 
Q 450 2500 762 2737 
Q 1075 2975 1575 2975 
Q 2125 2975 2400 2725 
Q 2675 2475 2675 2025 
L 2675 650 
Q 2675 500 2725 375 
Q 2775 250 2875 125 
z
M 2175 1050 
L 2175 1550 
Q 2025 1500 1887 1462 
Q 1750 1425 1425 1375 
Q 1050 1325 937 1200 
Q 825 1075 825 900 
Q 825 750 937 637 
Q 1050 525 1275 525 
Q 1500 525 1762 650 
Q 2025 775 2175 1050 
z
" transform="scale(0.015625)"/>
      <path id="SimHei-29" d="M 1675 2250 
Q 1675 1425 1362 775 
Q 1050 125 425 -475 
L 150 -200 
Q 725 325 1012 912 
Q 1300 1500 1300 2250 
Q 1300 3000 1012 3587 
Q 725 4175 150 4725 
L 425 5000 
Q 1050 4375 1362 3725 
Q 1675 3075 1675 2250 
z
" transform="scale(0.015625)"/>
      <path id="SimHei-20" transform="scale(0.015625)"/>
      <path id="SimHei-6708" d="M 5250 4825 
Q 5200 4225 5200 3750 
L 5200 200 
Q 5200 -275 4950 -375 
Q 4700 -475 3975 -525 
Q 3925 -225 3750 50 
Q 4300 25 4512 50 
Q 4725 75 4725 400 
L 4725 1600 
L 1850 1600 
Q 1725 775 1450 225 
Q 1175 -325 900 -575 
Q 700 -400 400 -325 
Q 800 25 1037 512 
Q 1275 1000 1337 1475 
Q 1400 1950 1400 2525 
L 1400 3625 
Q 1400 4175 1375 4825 
L 5250 4825 
z
M 4725 3400 
L 4725 4450 
L 1875 4450 
L 1875 3400 
L 4725 3400 
z
M 4725 2000 
L 4725 3025 
L 1875 3025 
L 1875 2000 
L 4725 2000 
z
" transform="scale(0.015625)"/>
      <path id="SimHei-5ea6" d="M 1750 1675 
Q 2450 1650 2875 1650 
L 5200 1650 
Q 4975 1250 4650 850 
Q 4325 450 4025 200 
Q 4350 50 4950 -50 
Q 5550 -150 6100 -150 
Q 5950 -300 5825 -650 
Q 5100 -550 4550 -412 
Q 4000 -275 3625 -100 
Q 3100 -325 2587 -462 
Q 2075 -600 1525 -675 
Q 1450 -475 1225 -250 
Q 1675 -250 2250 -125 
Q 2825 0 3250 200 
Q 2825 550 2400 1275 
L 1750 1250 
L 1750 1675 
z
M 2975 5075 
Q 3250 5150 3475 5250 
Q 3625 4975 3775 4525 
L 4700 4525 
Q 4975 4525 5700 4550 
L 5700 4100 
Q 5000 4125 4650 4125 
L 1375 4125 
Q 1375 3000 1350 2312 
Q 1325 1625 1212 950 
Q 1100 275 725 -525 
Q 500 -375 250 -300 
Q 650 400 762 1075 
Q 875 1750 887 2800 
Q 900 3850 875 4525 
L 3200 4525 
Q 3100 4850 2975 5075 
z
M 2475 3300 
Q 2475 3700 2450 3925 
L 2975 3925 
Q 2950 3725 2950 3300 
L 4300 3300 
Q 4300 3700 4275 3950 
L 4800 3950 
Q 4775 3650 4775 3300 
Q 5325 3300 5725 3325 
L 5725 2900 
Q 5350 2925 4775 2925 
Q 4775 2250 4800 1950 
L 2450 1950 
Q 2475 2350 2475 2925 
Q 2175 2925 1600 2900 
L 1600 3325 
Q 2175 3300 2475 3300 
z
M 4300 2350 
L 4300 2925 
L 2950 2925 
L 2950 2350 
L 4300 2350 
z
M 2875 1275 
Q 3200 775 3650 425 
Q 4025 700 4425 1275 
L 2900 1275 
L 2875 1275 
z
" transform="scale(0.015625)"/>
      <path id="SimHei-6536" d="M 4250 5050 
Q 4125 4850 3750 4050 
L 5150 4050 
Q 5675 4050 6125 4075 
L 6125 3600 
Q 5675 3625 5300 3625 
Q 5225 2625 5025 1975 
Q 4825 1325 4575 900 
Q 4900 500 5287 275 
Q 5675 50 6200 -75 
Q 5900 -275 5800 -550 
Q 5300 -350 4950 -100 
Q 4600 150 4275 525 
Q 3800 0 2775 -625 
Q 2650 -425 2300 -225 
Q 3275 150 3950 925 
Q 3775 1325 3612 1787 
Q 3450 2250 3250 3000 
Q 2975 2450 2825 2275 
Q 2650 2400 2425 2525 
Q 2775 3025 3137 3837 
Q 3500 4650 3625 5250 
Q 3925 5125 4250 5050 
z
M 975 4275 
Q 925 3950 925 3450 
L 925 1575 
L 1775 1725 
L 1775 4425 
Q 1775 4775 1750 5150 
L 2250 5150 
Q 2225 4850 2225 4450 
L 2225 300 
Q 2225 -50 2250 -550 
L 1750 -550 
Q 1775 -25 1775 350 
L 1775 1350 
Q 625 1050 500 925 
Q 375 1125 225 1350 
Q 450 1475 450 1800 
L 450 3575 
Q 450 3925 425 4275 
L 975 4275 
z
M 3725 3150 
Q 3800 2700 3962 2212 
Q 4125 1725 4300 1375 
Q 4725 2150 4825 3625 
L 3575 3625 
Q 3400 3275 3300 3100 
L 3725 3150 
z
" transform="scale(0.015625)"/>
      <path id="SimHei-76ca" d="M 2825 2925 
Q 2425 2775 2012 2487 
Q 1600 2200 1225 1975 
L 5275 1975 
Q 5250 1575 5250 1000 
L 5250 -50 
Q 5800 -50 6175 -25 
L 6175 -525 
Q 5725 -500 5250 -500 
L 1325 -500 
Q 700 -500 250 -525 
L 250 -25 
Q 600 -50 1175 -50 
L 1175 1050 
Q 1175 1575 1150 1925 
Q 1000 1800 800 1700 
Q 650 1950 425 2125 
Q 800 2275 1312 2600 
Q 1825 2925 2325 3400 
Q 2550 3150 2825 2925 
z
M 4725 5050 
Q 4575 4900 4462 4637 
Q 4350 4375 4175 4075 
L 4625 4075 
Q 5350 4075 5900 4100 
L 5900 3625 
Q 5350 3650 4625 3650 
L 1975 3650 
Q 1350 3650 550 3625 
L 550 4100 
Q 1175 4075 1975 4075 
L 3675 4075 
Q 3775 4300 3887 4625 
Q 4000 4950 4125 5250 
L 4725 5050 
z
M 3600 -50 
L 3600 1575 
L 2800 1575 
L 2800 -50 
L 3600 -50 
z
M 4800 -50 
L 4800 1575 
L 4025 1575 
L 4025 -50 
L 4800 -50 
z
M 2375 -50 
L 2375 1575 
L 1625 1575 
L 1625 -50 
L 2375 -50 
z
M 3900 3350 
Q 4375 3150 4900 2925 
Q 5425 2700 5900 2500 
Q 5700 2300 5550 2000 
Q 5025 2300 4512 2537 
Q 4000 2775 3625 2900 
Q 3750 3075 3900 3350 
z
M 2150 5250 
Q 2375 4925 2650 4350 
Q 2425 4275 2150 4125 
Q 1950 4650 1675 5025 
Q 1875 5100 2150 5250 
z
" transform="scale(0.015625)"/>
      <path id="SimHei-7387" d="M 3325 5150 
Q 3425 4900 3550 4525 
L 4800 4525 
Q 5250 4525 5800 4550 
L 5800 4125 
Q 5250 4175 4775 4175 
L 2800 4175 
Q 2975 4050 3300 3900 
Q 3075 3750 2875 3537 
Q 2675 3325 2475 3125 
L 3275 3125 
Q 3575 3425 3775 3775 
Q 4000 3600 4275 3425 
Q 3950 3250 3600 2875 
Q 3250 2500 2625 2000 
L 3850 2100 
Q 3725 2250 3600 2425 
Q 3750 2475 4000 2650 
Q 4250 2350 4700 1700 
Q 4475 1625 4225 1450 
Q 4175 1600 4025 1775 
Q 3700 1750 3425 1750 
L 3425 1050 
L 5150 1050 
Q 5675 1050 6100 1075 
L 6100 650 
Q 5700 675 5125 675 
L 3425 675 
L 3425 175 
Q 3425 -300 3450 -625 
L 2900 -625 
Q 2925 -300 2925 175 
L 2925 675 
L 1325 675 
Q 825 675 325 650 
L 325 1075 
Q 825 1050 1350 1050 
L 2925 1050 
L 2925 1700 
Q 2700 1675 2475 1637 
Q 2250 1600 2025 1525 
Q 1950 1775 1850 2000 
Q 2075 2025 2325 2200 
Q 2575 2375 2975 2800 
Q 2300 2725 2025 2625 
Q 1975 2875 1850 3175 
Q 2075 3175 2325 3487 
Q 2575 3800 2750 4175 
L 1700 4175 
Q 1150 4175 650 4125 
L 650 4550 
Q 1150 4525 1550 4525 
L 2975 4525 
Q 2900 4825 2800 5025 
Q 3025 5075 3325 5150 
z
M 1625 2575 
Q 1725 2400 1825 2200 
Q 1575 2050 1325 1862 
Q 1075 1675 800 1425 
Q 625 1675 475 1875 
Q 800 2025 1100 2212 
Q 1400 2400 1625 2575 
z
M 4850 2650 
Q 5125 2475 5337 2337 
Q 5550 2200 5875 1950 
Q 5675 1800 5500 1600 
Q 5300 1775 5062 1975 
Q 4825 2175 4575 2325 
Q 4725 2475 4850 2650 
z
M 5725 3525 
Q 5550 3450 5300 3262 
Q 5050 3075 4800 2825 
Q 4625 3050 4475 3175 
Q 4700 3325 4875 3487 
Q 5050 3650 5300 3925 
Q 5525 3700 5725 3525 
z
M 1050 3850 
Q 1425 3600 1775 3275 
Q 1575 3100 1425 2925 
Q 1075 3300 675 3525 
Q 875 3700 1050 3850 
z
" transform="scale(0.015625)"/>
     </defs>
     <use xlink:href="#SimHei-28"/>
     <use xlink:href="#SimHei-61" transform="translate(50 0)"/>
     <use xlink:href="#SimHei-29" transform="translate(100 0)"/>
     <use xlink:href="#SimHei-20" transform="translate(150 0)"/>
     <use xlink:href="#SimHei-6708" transform="translate(200 0)"/>
     <use xlink:href="#SimHei-5ea6" transform="translate(300 0)"/>
     <use xlink:href="#SimHei-6536" transform="translate(400 0)"/>
     <use xlink:href="#SimHei-76ca" transform="translate(500 0)"/>
     <use xlink:href="#SimHei-7387" transform="translate(600 0)"/>
    </g>
   </g>
  </g>
  <g id="axes_2">
   <g id="patch_5">
    <path d="M 287.835417 198.657775 
L 503.782853 198.657775 
L 503.782853 21.649219 
L 287.835417 21.649219 
z
" style="fill: #ffffff"/>
   </g>
   <g id="matplotlib.axis_3">
    <g id="xtick_12">
     <g id="line2d_41">
      <path d="M 308.114601 198.657775 
L 308.114601 21.649219 
" clip-path="url(#p3cfe24ba67)" style="fill: none; stroke: #b0b0b0; stroke-opacity: 0.22; stroke-width: 0.8; stroke-linecap: square"/>
     </g>
     <g id="line2d_42">
      <g>
       <use xlink:href="#m4d583b0b7e" x="308.114601" y="198.657775" style="stroke: #000000; stroke-width: 0.8"/>
      </g>
     </g>
     <g id="text_23">
      <!-- 2017 -->
      <g transform="translate(301.421307 218.138521) rotate(-25) scale(0.085 -0.085)">
       <use xlink:href="#SimHei-32"/>
       <use xlink:href="#SimHei-30" transform="translate(50 0)"/>
       <use xlink:href="#SimHei-31" transform="translate(100 0)"/>
       <use xlink:href="#SimHei-37" transform="translate(150 0)"/>
      </g>
     </g>
    </g>
    <g id="xtick_13">
     <g id="line2d_43">
      <path d="M 328.75859 198.657775 
L 328.75859 21.649219 
" clip-path="url(#p3cfe24ba67)" style="fill: none; stroke: #b0b0b0; stroke-opacity: 0.22; stroke-width: 0.8; stroke-linecap: square"/>
     </g>
     <g id="line2d_44">
      <g>
       <use xlink:href="#m4d583b0b7e" x="328.75859" y="198.657775" style="stroke: #000000; stroke-width: 0.8"/>
      </g>
     </g>
     <g id="text_24">
      <!-- 2018 -->
      <g transform="translate(322.065296 218.138521) rotate(-25) scale(0.085 -0.085)">
       <use xlink:href="#SimHei-32"/>
       <use xlink:href="#SimHei-30" transform="translate(50 0)"/>
       <use xlink:href="#SimHei-31" transform="translate(100 0)"/>
       <use xlink:href="#SimHei-38" transform="translate(150 0)"/>
      </g>
     </g>
    </g>
    <g id="xtick_14">
     <g id="line2d_45">
      <path d="M 349.402579 198.657775 
L 349.402579 21.649219 
" clip-path="url(#p3cfe24ba67)" style="fill: none; stroke: #b0b0b0; stroke-opacity: 0.22; stroke-width: 0.8; stroke-linecap: square"/>
     </g>
     <g id="line2d_46">
      <g>
       <use xlink:href="#m4d583b0b7e" x="349.402579" y="198.657775" style="stroke: #000000; stroke-width: 0.8"/>
      </g>
     </g>
     <g id="text_25">
      <!-- 2019 -->
      <g transform="translate(342.709285 218.138521) rotate(-25) scale(0.085 -0.085)">
       <use xlink:href="#SimHei-32"/>
       <use xlink:href="#SimHei-30" transform="translate(50 0)"/>
       <use xlink:href="#SimHei-31" transform="translate(100 0)"/>
       <use xlink:href="#SimHei-39" transform="translate(150 0)"/>
      </g>
     </g>
    </g>
    <g id="xtick_15">
     <g id="line2d_47">
      <path d="M 370.046568 198.657775 
L 370.046568 21.649219 
" clip-path="url(#p3cfe24ba67)" style="fill: none; stroke: #b0b0b0; stroke-opacity: 0.22; stroke-width: 0.8; stroke-linecap: square"/>
     </g>
     <g id="line2d_48">
      <g>
       <use xlink:href="#m4d583b0b7e" x="370.046568" y="198.657775" style="stroke: #000000; stroke-width: 0.8"/>
      </g>
     </g>
     <g id="text_26">
      <!-- 2020 -->
      <g transform="translate(363.353274 218.138521) rotate(-25) scale(0.085 -0.085)">
       <use xlink:href="#SimHei-32"/>
       <use xlink:href="#SimHei-30" transform="translate(50 0)"/>
       <use xlink:href="#SimHei-32" transform="translate(100 0)"/>
       <use xlink:href="#SimHei-30" transform="translate(150 0)"/>
      </g>
     </g>
    </g>
    <g id="xtick_16">
     <g id="line2d_49">
      <path d="M 390.747116 198.657775 
L 390.747116 21.649219 
" clip-path="url(#p3cfe24ba67)" style="fill: none; stroke: #b0b0b0; stroke-opacity: 0.22; stroke-width: 0.8; stroke-linecap: square"/>
     </g>
     <g id="line2d_50">
      <g>
       <use xlink:href="#m4d583b0b7e" x="390.747116" y="198.657775" style="stroke: #000000; stroke-width: 0.8"/>
      </g>
     </g>
     <g id="text_27">
      <!-- 2021 -->
      <g transform="translate(384.053821 218.138521) rotate(-25) scale(0.085 -0.085)">
       <use xlink:href="#SimHei-32"/>
       <use xlink:href="#SimHei-30" transform="translate(50 0)"/>
       <use xlink:href="#SimHei-32" transform="translate(100 0)"/>
       <use xlink:href="#SimHei-31" transform="translate(150 0)"/>
      </g>
     </g>
    </g>
    <g id="xtick_17">
     <g id="line2d_51">
      <path d="M 411.391105 198.657775 
L 411.391105 21.649219 
" clip-path="url(#p3cfe24ba67)" style="fill: none; stroke: #b0b0b0; stroke-opacity: 0.22; stroke-width: 0.8; stroke-linecap: square"/>
     </g>
     <g id="line2d_52">
      <g>
       <use xlink:href="#m4d583b0b7e" x="411.391105" y="198.657775" style="stroke: #000000; stroke-width: 0.8"/>
      </g>
     </g>
     <g id="text_28">
      <!-- 2022 -->
      <g transform="translate(404.69781 218.138521) rotate(-25) scale(0.085 -0.085)">
       <use xlink:href="#SimHei-32"/>
       <use xlink:href="#SimHei-30" transform="translate(50 0)"/>
       <use xlink:href="#SimHei-32" transform="translate(100 0)"/>
       <use xlink:href="#SimHei-32" transform="translate(150 0)"/>
      </g>
     </g>
    </g>
    <g id="xtick_18">
     <g id="line2d_53">
      <path d="M 432.035094 198.657775 
L 432.035094 21.649219 
" clip-path="url(#p3cfe24ba67)" style="fill: none; stroke: #b0b0b0; stroke-opacity: 0.22; stroke-width: 0.8; stroke-linecap: square"/>
     </g>
     <g id="line2d_54">
      <g>
       <use xlink:href="#m4d583b0b7e" x="432.035094" y="198.657775" style="stroke: #000000; stroke-width: 0.8"/>
      </g>
     </g>
     <g id="text_29">
      <!-- 2023 -->
      <g transform="translate(425.341799 218.138521) rotate(-25) scale(0.085 -0.085)">
       <use xlink:href="#SimHei-32"/>
       <use xlink:href="#SimHei-30" transform="translate(50 0)"/>
       <use xlink:href="#SimHei-32" transform="translate(100 0)"/>
       <use xlink:href="#SimHei-33" transform="translate(150 0)"/>
      </g>
     </g>
    </g>
    <g id="xtick_19">
     <g id="line2d_55">
      <path d="M 452.679083 198.657775 
L 452.679083 21.649219 
" clip-path="url(#p3cfe24ba67)" style="fill: none; stroke: #b0b0b0; stroke-opacity: 0.22; stroke-width: 0.8; stroke-linecap: square"/>
     </g>
     <g id="line2d_56">
      <g>
       <use xlink:href="#m4d583b0b7e" x="452.679083" y="198.657775" style="stroke: #000000; stroke-width: 0.8"/>
      </g>
     </g>
     <g id="text_30">
      <!-- 2024 -->
      <g transform="translate(445.985788 218.138521) rotate(-25) scale(0.085 -0.085)">
       <use xlink:href="#SimHei-32"/>
       <use xlink:href="#SimHei-30" transform="translate(50 0)"/>
       <use xlink:href="#SimHei-32" transform="translate(100 0)"/>
       <use xlink:href="#SimHei-34" transform="translate(150 0)"/>
      </g>
     </g>
    </g>
    <g id="xtick_20">
     <g id="line2d_57">
      <path d="M 473.379631 198.657775 
L 473.379631 21.649219 
" clip-path="url(#p3cfe24ba67)" style="fill: none; stroke: #b0b0b0; stroke-opacity: 0.22; stroke-width: 0.8; stroke-linecap: square"/>
     </g>
     <g id="line2d_58">
      <g>
       <use xlink:href="#m4d583b0b7e" x="473.379631" y="198.657775" style="stroke: #000000; stroke-width: 0.8"/>
      </g>
     </g>
     <g id="text_31">
      <!-- 2025 -->
      <g transform="translate(466.686336 218.138521) rotate(-25) scale(0.085 -0.085)">
       <use xlink:href="#SimHei-32"/>
       <use xlink:href="#SimHei-30" transform="translate(50 0)"/>
       <use xlink:href="#SimHei-32" transform="translate(100 0)"/>
       <use xlink:href="#SimHei-35" transform="translate(150 0)"/>
      </g>
     </g>
    </g>
    <g id="xtick_21">
     <g id="line2d_59">
      <path d="M 494.02362 198.657775 
L 494.02362 21.649219 
" clip-path="url(#p3cfe24ba67)" style="fill: none; stroke: #b0b0b0; stroke-opacity: 0.22; stroke-width: 0.8; stroke-linecap: square"/>
     </g>
     <g id="line2d_60">
      <g>
       <use xlink:href="#m4d583b0b7e" x="494.02362" y="198.657775" style="stroke: #000000; stroke-width: 0.8"/>
      </g>
     </g>
     <g id="text_32">
      <!-- 2026 -->
      <g transform="translate(487.330325 218.138521) rotate(-25) scale(0.085 -0.085)">
       <use xlink:href="#SimHei-32"/>
       <use xlink:href="#SimHei-30" transform="translate(50 0)"/>
       <use xlink:href="#SimHei-32" transform="translate(100 0)"/>
       <use xlink:href="#SimHei-36" transform="translate(150 0)"/>
      </g>
     </g>
    </g>
    <g id="text_33">
     <!-- 日期 -->
     <g transform="translate(386.309135 230.41202) scale(0.095 -0.095)">
      <use xlink:href="#SimHei-65e5"/>
      <use xlink:href="#SimHei-671f" transform="translate(100 0)"/>
     </g>
    </g>
   </g>
   <g id="matplotlib.axis_4">
    <g id="ytick_9">
     <g id="line2d_61">
      <path d="M 287.835417 197.888204 
L 503.782853 197.888204 
" clip-path="url(#p3cfe24ba67)" style="fill: none; stroke: #b0b0b0; stroke-opacity: 0.22; stroke-width: 0.8; stroke-linecap: square"/>
     </g>
     <g id="line2d_62">
      <g>
       <use xlink:href="#m1a3a2ddd9f" x="287.835417" y="197.888204" style="stroke: #000000; stroke-width: 0.8"/>
      </g>
     </g>
     <g id="text_34">
      <!-- -6 -->
      <g transform="translate(272.335417 200.810079) scale(0.085 -0.085)">
       <use xlink:href="#SimHei-2d"/>
       <use xlink:href="#SimHei-36" transform="translate(50 0)"/>
      </g>
     </g>
    </g>
    <g id="ytick_10">
     <g id="line2d_63">
      <path d="M 287.835417 177.305048 
L 503.782853 177.305048 
" clip-path="url(#p3cfe24ba67)" style="fill: none; stroke: #b0b0b0; stroke-opacity: 0.22; stroke-width: 0.8; stroke-linecap: square"/>
     </g>
     <g id="line2d_64">
      <g>
       <use xlink:href="#m1a3a2ddd9f" x="287.835417" y="177.305048" style="stroke: #000000; stroke-width: 0.8"/>
      </g>
     </g>
     <g id="text_35">
      <!-- -4 -->
      <g transform="translate(272.335417 180.226923) scale(0.085 -0.085)">
       <use xlink:href="#SimHei-2d"/>
       <use xlink:href="#SimHei-34" transform="translate(50 0)"/>
      </g>
     </g>
    </g>
    <g id="ytick_11">
     <g id="line2d_65">
      <path d="M 287.835417 156.721893 
L 503.782853 156.721893 
" clip-path="url(#p3cfe24ba67)" style="fill: none; stroke: #b0b0b0; stroke-opacity: 0.22; stroke-width: 0.8; stroke-linecap: square"/>
     </g>
     <g id="line2d_66">
      <g>
       <use xlink:href="#m1a3a2ddd9f" x="287.835417" y="156.721893" style="stroke: #000000; stroke-width: 0.8"/>
      </g>
     </g>
     <g id="text_36">
      <!-- -2 -->
      <g transform="translate(272.335417 159.643768) scale(0.085 -0.085)">
       <use xlink:href="#SimHei-2d"/>
       <use xlink:href="#SimHei-32" transform="translate(50 0)"/>
      </g>
     </g>
    </g>
    <g id="ytick_12">
     <g id="line2d_67">
      <path d="M 287.835417 136.138738 
L 503.782853 136.138738 
" clip-path="url(#p3cfe24ba67)" style="fill: none; stroke: #b0b0b0; stroke-opacity: 0.22; stroke-width: 0.8; stroke-linecap: square"/>
     </g>
     <g id="line2d_68">
      <g>
       <use xlink:href="#m1a3a2ddd9f" x="287.835417" y="136.138738" style="stroke: #000000; stroke-width: 0.8"/>
      </g>
     </g>
     <g id="text_37">
      <!-- 0 -->
      <g transform="translate(276.585417 139.060613) scale(0.085 -0.085)">
       <use xlink:href="#SimHei-30"/>
      </g>
     </g>
    </g>
    <g id="ytick_13">
     <g id="line2d_69">
      <path d="M 287.835417 115.555582 
L 503.782853 115.555582 
" clip-path="url(#p3cfe24ba67)" style="fill: none; stroke: #b0b0b0; stroke-opacity: 0.22; stroke-width: 0.8; stroke-linecap: square"/>
     </g>
     <g id="line2d_70">
      <g>
       <use xlink:href="#m1a3a2ddd9f" x="287.835417" y="115.555582" style="stroke: #000000; stroke-width: 0.8"/>
      </g>
     </g>
     <g id="text_38">
      <!-- 2 -->
      <g transform="translate(276.585417 118.477457) scale(0.085 -0.085)">
       <use xlink:href="#SimHei-32"/>
      </g>
     </g>
    </g>
    <g id="ytick_14">
     <g id="line2d_71">
      <path d="M 287.835417 94.972427 
L 503.782853 94.972427 
" clip-path="url(#p3cfe24ba67)" style="fill: none; stroke: #b0b0b0; stroke-opacity: 0.22; stroke-width: 0.8; stroke-linecap: square"/>
     </g>
     <g id="line2d_72">
      <g>
       <use xlink:href="#m1a3a2ddd9f" x="287.835417" y="94.972427" style="stroke: #000000; stroke-width: 0.8"/>
      </g>
     </g>
     <g id="text_39">
      <!-- 4 -->
      <g transform="translate(276.585417 97.894302) scale(0.085 -0.085)">
       <use xlink:href="#SimHei-34"/>
      </g>
     </g>
    </g>
    <g id="ytick_15">
     <g id="line2d_73">
      <path d="M 287.835417 74.389272 
L 503.782853 74.389272 
" clip-path="url(#p3cfe24ba67)" style="fill: none; stroke: #b0b0b0; stroke-opacity: 0.22; stroke-width: 0.8; stroke-linecap: square"/>
     </g>
     <g id="line2d_74">
      <g>
       <use xlink:href="#m1a3a2ddd9f" x="287.835417" y="74.389272" style="stroke: #000000; stroke-width: 0.8"/>
      </g>
     </g>
     <g id="text_40">
      <!-- 6 -->
      <g transform="translate(276.585417 77.311147) scale(0.085 -0.085)">
       <use xlink:href="#SimHei-36"/>
      </g>
     </g>
    </g>
    <g id="ytick_16">
     <g id="line2d_75">
      <path d="M 287.835417 53.806116 
L 503.782853 53.806116 
" clip-path="url(#p3cfe24ba67)" style="fill: none; stroke: #b0b0b0; stroke-opacity: 0.22; stroke-width: 0.8; stroke-linecap: square"/>
     </g>
     <g id="line2d_76">
      <g>
       <use xlink:href="#m1a3a2ddd9f" x="287.835417" y="53.806116" style="stroke: #000000; stroke-width: 0.8"/>
      </g>
     </g>
     <g id="text_41">
      <!-- 8 -->
      <g transform="translate(276.585417 56.727991) scale(0.085 -0.085)">
       <use xlink:href="#SimHei-38"/>
      </g>
     </g>
    </g>
    <g id="ytick_17">
     <g id="line2d_77">
      <path d="M 287.835417 33.222961 
L 503.782853 33.222961 
" clip-path="url(#p3cfe24ba67)" style="fill: none; stroke: #b0b0b0; stroke-opacity: 0.22; stroke-width: 0.8; stroke-linecap: square"/>
     </g>
     <g id="line2d_78">
      <g>
       <use xlink:href="#m1a3a2ddd9f" x="287.835417" y="33.222961" style="stroke: #000000; stroke-width: 0.8"/>
      </g>
     </g>
     <g id="text_42">
      <!-- 10 -->
      <g transform="translate(272.335417 36.144836) scale(0.085 -0.085)">
       <use xlink:href="#SimHei-31"/>
       <use xlink:href="#SimHei-30" transform="translate(50 0)"/>
      </g>
     </g>
    </g>
    <g id="text_43">
     <!-- % -->
     <g transform="translate(267.147917 112.528497) rotate(-90) scale(0.095 -0.095)">
      <use xlink:href="#SimHei-25"/>
     </g>
    </g>
   </g>
   <g id="line2d_79">
    <path d="M 297.651209 119.839023 
L 299.404534 119.453905 
L 301.157859 109.964718 
L 302.854626 93.795071 
L 304.607951 117.192075 
L 306.304717 128.290337 
L 308.058042 131.81435 
L 309.811367 127.015026 
L 311.395016 143.714687 
L 313.148341 140.640637 
L 314.845107 130.505464 
L 316.598432 128.114466 
L 318.295198 115.41361 
L 320.048523 123.764455 
L 321.801848 139.472713 
L 323.498615 136.695353 
L 325.25194 140.525971 
L 326.948706 142.245242 
L 328.702031 155.181184 
L 330.455356 148.142744 
L 332.039005 102.539848 
L 333.79233 104.492576 
L 335.489096 89.912978 
L 337.242421 99.285669 
L 338.939187 96.522277 
L 340.692512 113.231251 
L 342.445837 125.114257 
L 344.142604 118.475116 
L 345.895929 126.362715 
L 347.592695 119.536919 
L 349.34602 121.951551 
L 351.099345 113.422159 
L 352.682994 138.113884 
L 354.436319 138.439515 
L 356.133085 133.917347 
L 357.88641 125.219759 
L 359.583176 118.24033 
L 361.336501 114.98936 
L 363.089826 92.487636 
L 364.786593 82.420509 
L 366.539918 90.944908 
L 368.236684 72.659704 
L 369.990009 83.653948 
L 371.743334 61.406971 
L 373.383541 36.235561 
L 375.136867 37.043018 
L 376.833633 29.695062 
L 378.586958 61.249054 
L 380.283724 42.780272 
L 382.037049 69.34826 
L 383.790374 111.122224 
L 385.487141 123.475456 
L 387.240466 132.576066 
L 388.937232 112.166429 
L 390.690557 123.266413 
L 392.443882 119.518494 
L 394.02753 117.886569 
L 395.780856 125.426653 
L 397.477622 141.939023 
L 399.230947 158.432888 
L 400.927713 145.507099 
L 402.681038 143.660786 
L 404.434363 136.064361 
L 406.131129 158.928663 
L 407.884455 139.210124 
L 409.581221 149.295253 
L 411.334546 173.321693 
L 413.087871 147.945545 
L 414.671519 153.387742 
L 416.424845 115.700451 
L 418.121611 121.918743 
L 419.874936 114.575111 
L 421.571702 110.98741 
L 423.325027 122.587024 
L 425.078352 119.531277 
L 426.775118 116.076203 
L 428.528444 118.372117 
L 430.22521 110.092713 
L 431.978535 101.08467 
L 433.73186 108.423438 
L 435.315508 114.410206 
L 437.068834 136.782939 
L 438.7656 130.531859 
L 440.518925 136.044421 
L 442.215691 134.388717 
L 443.969016 135.617136 
L 445.722341 144.439871 
L 447.419107 148.657721 
L 449.172433 166.275747 
L 450.869199 160.119467 
L 452.622524 148.258654 
L 454.375849 157.670162 
L 456.016056 142.311768 
L 457.769381 146.080567 
L 459.466148 144.117726 
L 461.219473 169.391315 
L 462.916239 190.611931 
L 464.669564 178.375967 
L 466.422889 183.432745 
L 468.119655 153.354369 
L 469.87298 138.379818 
L 471.569747 117.862479 
L 473.323072 113.471075 
L 475.076397 120.003614 
L 476.660045 105.168841 
L 478.41337 127.195394 
L 480.110137 141.497671 
L 481.863462 130.451532 
L 483.560228 131.03943 
L 485.313553 121.838656 
L 487.066878 121.631788 
L 488.763644 120.498849 
L 490.516969 97.096285 
L 492.213736 94.255448 
L 493.967061 81.954179 
" clip-path="url(#p3cfe24ba67)" style="fill: none; stroke: #c8900a; stroke-width: 1.4; stroke-linecap: square"/>
   </g>
   <g id="line2d_80">
    <path d="M 287.835417 136.138738 
L 503.782853 136.138738 
" clip-path="url(#p3cfe24ba67)" style="fill: none; stroke: #777777; stroke-linecap: square"/>
   </g>
   <g id="patch_6">
    <path d="M 287.835417 198.657775 
L 287.835417 21.649219 
" style="fill: none; stroke: #000000; stroke-width: 0.8; stroke-linejoin: miter; stroke-linecap: square"/>
   </g>
   <g id="patch_7">
    <path d="M 287.835417 198.657775 
L 503.782853 198.657775 
" style="fill: none; stroke: #000000; stroke-width: 0.8; stroke-linejoin: miter; stroke-linecap: square"/>
   </g>
   <g id="text_44">
    <!-- (b) 6 期滚动均值 -->
    <g transform="translate(353.809135 15.649219) scale(0.105 -0.105)">
     <defs>
      <path id="SimHei-62" d="M 2825 1525 
Q 2825 800 2475 437 
Q 2125 75 1625 75 
Q 1350 75 1150 175 
Q 950 275 800 500 
L 800 125 
L 300 125 
L 300 4400 
L 800 4400 
L 800 2550 
Q 950 2775 1150 2887 
Q 1350 3000 1625 3000 
Q 2125 3000 2475 2625 
Q 2825 2250 2825 1525 
z
M 2275 1525 
Q 2275 2000 2087 2275 
Q 1900 2550 1525 2550 
Q 1225 2550 1012 2275 
Q 800 2000 800 1525 
Q 800 1050 1012 787 
Q 1225 525 1525 525 
Q 1900 525 2087 787 
Q 2275 1050 2275 1525 
z
" transform="scale(0.015625)"/>
      <path id="SimHei-6eda" d="M 4650 3100 
Q 4925 2875 5175 2625 
L 5675 2125 
Q 5475 1950 5325 1775 
Q 5225 1925 5075 2100 
Q 4500 2075 4000 2025 
Q 3725 1575 3400 1225 
L 3400 100 
Q 3550 175 3712 262 
Q 3875 350 4050 450 
Q 4100 225 4200 25 
Q 3900 -125 3550 -325 
Q 3200 -525 2975 -675 
Q 2875 -450 2725 -250 
Q 2975 -125 3000 150 
L 3000 900 
Q 2675 625 1975 250 
Q 1875 475 1675 700 
Q 2150 825 2637 1150 
Q 3125 1475 3475 2000 
L 2900 1925 
Q 2725 1900 2425 1825 
Q 2350 2075 2250 2300 
Q 2550 2350 2900 2712 
Q 3250 3075 3625 3675 
Q 3825 3550 4125 3400 
Q 3925 3225 3625 2912 
Q 3325 2600 3000 2325 
Q 3900 2350 4750 2425 
Q 4550 2650 4350 2825 
Q 4525 2950 4650 3100 
z
M 3550 5175 
Q 3775 5200 4050 5275 
Q 4225 4875 4300 4525 
L 5150 4525 
Q 5500 4525 6025 4550 
L 6025 4150 
Q 5500 4175 5150 4175 
L 2950 4175 
Q 2500 4175 2025 4150 
L 2025 4550 
Q 2475 4525 2925 4525 
L 3800 4525 
Q 3750 4800 3550 5175 
z
M 5900 1325 
Q 5700 1200 5450 1037 
Q 5200 875 4950 700 
Q 5050 525 5350 300 
Q 5650 75 6200 -75 
Q 5975 -250 5850 -500 
Q 5275 -250 4912 112 
Q 4550 475 4325 900 
Q 4100 1325 3950 1725 
L 4300 1850 
Q 4525 1250 4725 1000 
Q 4975 1150 5175 1325 
Q 5375 1500 5525 1675 
Q 5675 1475 5900 1325 
z
M 1700 1525 
Q 1575 1375 1237 587 
Q 900 -200 750 -525 
Q 550 -350 275 -200 
Q 525 100 812 675 
Q 1100 1250 1275 1775 
Q 1475 1625 1700 1525 
z
M 5775 2825 
Q 5550 3050 5250 3287 
Q 4950 3525 4450 3800 
Q 4600 3925 4775 4125 
L 5475 3650 
Q 5825 3425 6125 3200 
Q 5900 3025 5775 2825 
z
M 1800 3100 
Q 2125 3250 2450 3525 
Q 2775 3800 2950 4100 
Q 3150 3925 3375 3750 
Q 3175 3625 2862 3337 
Q 2550 3050 2200 2775 
Q 2025 2950 1800 3100 
z
M 575 3450 
Q 750 3350 1025 3150 
Q 1300 2950 1625 2725 
Q 1400 2500 1275 2275 
Q 1100 2475 837 2687 
Q 575 2900 275 3100 
Q 425 3250 575 3450 
z
M 1475 3850 
Q 1175 4150 937 4337 
Q 700 4525 550 4675 
Q 725 4850 825 5000 
Q 975 4900 1225 4700 
Q 1475 4500 1825 4250 
Q 1650 4075 1475 3850 
z
" transform="scale(0.015625)"/>
      <path id="SimHei-52a8" d="M 4125 5150 
Q 4425 5075 4700 5075 
Q 4650 4825 4637 4512 
Q 4625 4200 4625 3750 
L 6025 3750 
Q 6000 3425 5975 3025 
L 5850 175 
Q 5775 -325 5437 -437 
Q 5100 -550 4675 -600 
Q 4600 -300 4425 -50 
Q 4975 -75 5175 12 
Q 5375 100 5375 350 
L 5525 3325 
L 4625 3325 
Q 4575 2225 4462 1650 
Q 4350 1075 4112 587 
Q 3875 100 3150 -675 
Q 2900 -425 2700 -350 
Q 3175 25 3475 437 
Q 3775 850 3900 1287 
Q 4025 1725 4075 2200 
Q 4125 2675 4150 3325 
L 3725 3325 
Q 3450 3325 3075 3300 
L 3075 3775 
Q 3450 3750 3775 3750 
L 4150 3750 
L 4150 4450 
Q 4150 4800 4125 5150 
z
M 275 3025 
Q 650 3000 1175 3000 
L 2125 3000 
Q 2575 3000 3150 3025 
L 3150 2575 
Q 2575 2600 2150 2600 
L 1875 2600 
Q 1725 2200 1537 1750 
Q 1350 1300 1100 850 
Q 2075 950 2575 1050 
Q 2450 1350 2175 1800 
Q 2450 1950 2575 2050 
Q 2825 1600 3000 1287 
Q 3175 975 3375 525 
Q 3175 400 2925 275 
Q 2825 500 2750 650 
Q 1950 525 1462 450 
Q 975 375 625 250 
Q 525 500 375 725 
Q 700 925 962 1525 
Q 1225 2125 1350 2600 
L 1175 2600 
Q 650 2600 275 2575 
L 275 3025 
z
M 2000 4425 
Q 2425 4425 2950 4450 
L 2950 3975 
Q 2425 4000 2000 4000 
L 1400 4000 
Q 1000 4000 625 3975 
L 625 4450 
Q 975 4425 1375 4425 
L 2000 4425 
z
" transform="scale(0.015625)"/>
      <path id="SimHei-5747" d="M 5775 275 
Q 5775 -325 5362 -450 
Q 4950 -575 4425 -600 
Q 4375 -275 4250 25 
Q 4950 -25 5125 62 
Q 5300 150 5300 500 
L 5375 3700 
L 3550 3700 
Q 3425 3375 3262 3037 
Q 3100 2700 2925 2400 
Q 2675 2550 2475 2625 
Q 3150 3625 3500 5200 
Q 3800 5100 4075 5025 
Q 3975 4875 3875 4650 
Q 3775 4425 3675 4125 
L 5900 4125 
L 5775 275 
z
M 1250 3625 
L 1250 4375 
Q 1250 4775 1225 5100 
L 1775 5100 
Q 1750 4725 1750 4375 
L 1750 3625 
L 1900 3625 
Q 2200 3625 2525 3650 
L 2525 3150 
Q 2200 3175 1900 3175 
L 1750 3175 
L 1750 1100 
L 2500 1375 
Q 2475 1125 2525 900 
Q 1225 475 962 362 
Q 700 250 475 150 
Q 375 475 250 750 
Q 575 800 800 850 
Q 1025 900 1250 975 
L 1250 3175 
L 1125 3175 
Q 850 3175 400 3150 
L 400 3650 
Q 850 3625 1100 3625 
L 1250 3625 
z
M 4950 1625 
Q 4675 1425 4137 1050 
Q 3600 675 3175 300 
Q 3000 575 2850 775 
Q 3350 1050 3762 1325 
Q 4175 1600 4775 2075 
Q 4825 1850 4950 1625 
z
M 3775 3150 
Q 4125 2800 4475 2300 
Q 4250 2125 4100 1975 
Q 3900 2325 3450 2825 
Q 3600 3000 3775 3150 
z
" transform="scale(0.015625)"/>
      <path id="SimHei-503c" d="M 3675 4450 
L 3675 5100 
Q 3975 5075 4350 5050 
Q 4225 4875 4200 4450 
L 5125 4450 
Q 5550 4450 5875 4475 
L 5875 4025 
Q 5525 4050 5125 4050 
L 4175 4050 
L 4125 3500 
L 5400 3500 
Q 5375 3200 5375 2700 
L 5375 150 
Q 5875 150 6100 175 
L 6100 -275 
Q 5775 -250 5200 -250 
L 2850 -250 
Q 2275 -250 1900 -275 
L 1900 175 
Q 2125 150 2600 150 
L 2600 2700 
Q 2600 3175 2575 3500 
L 3600 3500 
L 3650 4050 
L 3200 4050 
Q 2575 4050 2225 4025 
L 2225 4475 
Q 2550 4450 3200 4450 
L 3675 4450 
z
M 2225 4900 
Q 2025 4675 1650 3750 
L 1650 450 
Q 1650 -75 1675 -550 
L 1150 -550 
Q 1175 -125 1175 375 
L 1175 2950 
Q 875 2450 625 2150 
Q 425 2425 250 2575 
Q 500 2825 937 3537 
Q 1375 4250 1625 5150 
Q 1975 4975 2225 4900 
z
M 4925 2650 
L 4925 3150 
L 3075 3150 
L 3075 2650 
L 4925 2650 
z
M 4925 150 
L 4925 625 
L 3075 625 
L 3075 150 
L 4925 150 
z
M 4925 1000 
L 4925 1450 
L 3075 1450 
L 3075 1000 
L 4925 1000 
z
M 4925 1825 
L 4925 2275 
L 3075 2275 
L 3075 1825 
L 4925 1825 
z
" transform="scale(0.015625)"/>
     </defs>
     <use xlink:href="#SimHei-28"/>
     <use xlink:href="#SimHei-62" transform="translate(50 0)"/>
     <use xlink:href="#SimHei-29" transform="translate(100 0)"/>
     <use xlink:href="#SimHei-20" transform="translate(150 0)"/>
     <use xlink:href="#SimHei-36" transform="translate(200 0)"/>
     <use xlink:href="#SimHei-20" transform="translate(250 0)"/>
     <use xlink:href="#SimHei-671f" transform="translate(300 0)"/>
     <use xlink:href="#SimHei-6eda" transform="translate(400 0)"/>
     <use xlink:href="#SimHei-52a8" transform="translate(500 0)"/>
     <use xlink:href="#SimHei-5747" transform="translate(600 0)"/>
     <use xlink:href="#SimHei-503c" transform="translate(700 0)"/>
    </g>
   </g>
  </g>
  <g id="axes_3">
   <g id="patch_8">
    <path d="M 541.252083 198.657775 
L 757.19952 198.657775 
L 757.19952 21.649219 
L 541.252083 21.649219 
z
" style="fill: #ffffff"/>
   </g>
   <g id="FillBetweenPolyCollection_1">
    <defs>
     <path id="mba797d84d8" d="M 551.067876 -209.104458 
L 551.067876 -209.104458 
L 552.639704 -209.104458 
L 554.319933 -161.744016 
L 555.945962 -204.403164 
L 557.626191 -209.104458 
L 559.25222 -209.104458 
L 560.932449 -208.241617 
L 562.612679 -209.104458 
L 564.238707 -203.755126 
L 565.918937 -190.854739 
L 567.544966 -188.818721 
L 569.225195 -192.222048 
L 570.905425 -203.388868 
L 572.423051 -189.246446 
L 574.103281 -191.766419 
L 575.729309 -204.525479 
L 577.409539 -208.572672 
L 579.035568 -209.104458 
L 580.715797 -199.014247 
L 582.396027 -145.124156 
L 584.022055 -153.563016 
L 585.702285 -156.471904 
L 587.328313 -156.138804 
L 589.008543 -158.742464 
L 590.688773 -166.01286 
L 592.206399 -209.104458 
L 593.886629 -209.104458 
L 595.512657 -209.104458 
L 597.192887 -184.375126 
L 598.818915 -193.947298 
L 600.499145 -159.929354 
L 602.179375 -188.817087 
L 603.805403 -209.104458 
L 605.485633 -209.104458 
L 607.111661 -202.109543 
L 608.791891 -205.909917 
L 610.47212 -192.948431 
L 611.989747 -162.414973 
L 613.669977 -181.379085 
L 615.296005 -209.104458 
L 616.976235 -209.104458 
L 618.602263 -209.104458 
L 620.282493 -204.495885 
L 621.962722 -209.104458 
L 623.588751 -209.104458 
L 625.26898 -209.104458 
L 626.895009 -209.104458 
L 628.575239 -202.53436 
L 630.255468 -209.104458 
L 631.827296 -209.104458 
L 633.507525 -209.104458 
L 635.133554 -209.104458 
L 636.813783 -190.232896 
L 638.439812 -209.104458 
L 640.120042 -193.269265 
L 641.800271 -177.4953 
L 643.4263 -189.708795 
L 645.106529 -195.215998 
L 646.732558 -209.104458 
L 648.412787 -209.104458 
L 650.093017 -203.006906 
L 651.610644 -191.057542 
L 653.290873 -184.874179 
L 654.916902 -149.74995 
L 656.597131 -142.210565 
L 658.22316 -181.440242 
L 659.903389 -180.220417 
L 661.583619 -187.347937 
L 663.209648 -124.713542 
L 664.889877 -136.13367 
L 666.515906 -106.947813 
L 668.196135 -94.410477 
L 669.876365 -142.407386 
L 671.393991 -136.864773 
L 673.074221 -163.73454 
L 674.70025 -161.876949 
L 676.380479 -147.732905 
L 678.006508 -141.744638 
L 679.686737 -171.023948 
L 681.366967 -172.323659 
L 682.992995 -209.104458 
L 684.673225 -201.071195 
L 686.299253 -206.6591 
L 687.979483 -209.104458 
L 689.659713 -209.104458 
L 691.177339 -194.971105 
L 692.857569 -178.429992 
L 694.483597 -186.07299 
L 696.163827 -177.887133 
L 697.789855 -197.194172 
L 699.470085 -209.101292 
L 701.150315 -172.045446 
L 702.776343 -146.335824 
L 704.456573 -114.060675 
L 706.082601 -119.853335 
L 707.762831 -161.101307 
L 709.44306 -150.199017 
L 711.014888 -152.669919 
L 712.695118 -119.627551 
L 714.321146 -93.679614 
L 716.001376 -50.478364 
L 717.627404 -48.187589 
L 719.307634 -60.692746 
L 720.987863 -53.828881 
L 722.613892 -80.096921 
L 724.294121 -84.672354 
L 725.92015 -81.072408 
L 727.60038 -86.669102 
L 729.280609 -88.554749 
L 730.798236 -109.164436 
L 732.478465 -96.043862 
L 734.104494 -73.117584 
L 735.784723 -89.589186 
L 737.410752 -94.21814 
L 739.090982 -113.890215 
L 740.771211 -136.52868 
L 742.39724 -124.833738 
L 744.077469 -149.228526 
L 745.703498 -176.137856 
L 747.383727 -209.104458 
L 747.383727 -209.104458 
L 747.383727 -209.104458 
L 745.703498 -209.104458 
L 744.077469 -209.104458 
L 742.39724 -209.104458 
L 740.771211 -209.104458 
L 739.090982 -209.104458 
L 737.410752 -209.104458 
L 735.784723 -209.104458 
L 734.104494 -209.104458 
L 732.478465 -209.104458 
L 730.798236 -209.104458 
L 729.280609 -209.104458 
L 727.60038 -209.104458 
L 725.92015 -209.104458 
L 724.294121 -209.104458 
L 722.613892 -209.104458 
L 720.987863 -209.104458 
L 719.307634 -209.104458 
L 717.627404 -209.104458 
L 716.001376 -209.104458 
L 714.321146 -209.104458 
L 712.695118 -209.104458 
L 711.014888 -209.104458 
L 709.44306 -209.104458 
L 707.762831 -209.104458 
L 706.082601 -209.104458 
L 704.456573 -209.104458 
L 702.776343 -209.104458 
L 701.150315 -209.104458 
L 699.470085 -209.104458 
L 697.789855 -209.104458 
L 696.163827 -209.104458 
L 694.483597 -209.104458 
L 692.857569 -209.104458 
L 691.177339 -209.104458 
L 689.659713 -209.104458 
L 687.979483 -209.104458 
L 686.299253 -209.104458 
L 684.673225 -209.104458 
L 682.992995 -209.104458 
L 681.366967 -209.104458 
L 679.686737 -209.104458 
L 678.006508 -209.104458 
L 676.380479 -209.104458 
L 674.70025 -209.104458 
L 673.074221 -209.104458 
L 671.393991 -209.104458 
L 669.876365 -209.104458 
L 668.196135 -209.104458 
L 666.515906 -209.104458 
L 664.889877 -209.104458 
L 663.209648 -209.104458 
L 661.583619 -209.104458 
L 659.903389 -209.104458 
L 658.22316 -209.104458 
L 656.597131 -209.104458 
L 654.916902 -209.104458 
L 653.290873 -209.104458 
L 651.610644 -209.104458 
L 650.093017 -209.104458 
L 648.412787 -209.104458 
L 646.732558 -209.104458 
L 645.106529 -209.104458 
L 643.4263 -209.104458 
L 641.800271 -209.104458 
L 640.120042 -209.104458 
L 638.439812 -209.104458 
L 636.813783 -209.104458 
L 635.133554 -209.104458 
L 633.507525 -209.104458 
L 631.827296 -209.104458 
L 630.255468 -209.104458 
L 628.575239 -209.104458 
L 626.895009 -209.104458 
L 625.26898 -209.104458 
L 623.588751 -209.104458 
L 621.962722 -209.104458 
L 620.282493 -209.104458 
L 618.602263 -209.104458 
L 616.976235 -209.104458 
L 615.296005 -209.104458 
L 613.669977 -209.104458 
L 611.989747 -209.104458 
L 610.47212 -209.104458 
L 608.791891 -209.104458 
L 607.111661 -209.104458 
L 605.485633 -209.104458 
L 603.805403 -209.104458 
L 602.179375 -209.104458 
L 600.499145 -209.104458 
L 598.818915 -209.104458 
L 597.192887 -209.104458 
L 595.512657 -209.104458 
L 593.886629 -209.104458 
L 592.206399 -209.104458 
L 590.688773 -209.104458 
L 589.008543 -209.104458 
L 587.328313 -209.104458 
L 585.702285 -209.104458 
L 584.022055 -209.104458 
L 582.396027 -209.104458 
L 580.715797 -209.104458 
L 579.035568 -209.104458 
L 577.409539 -209.104458 
L 575.729309 -209.104458 
L 574.103281 -209.104458 
L 572.423051 -209.104458 
L 570.905425 -209.104458 
L 569.225195 -209.104458 
L 567.544966 -209.104458 
L 565.918937 -209.104458 
L 564.238707 -209.104458 
L 562.612679 -209.104458 
L 560.932449 -209.104458 
L 559.25222 -209.104458 
L 557.626191 -209.104458 
L 555.945962 -209.104458 
L 554.319933 -209.104458 
L 552.639704 -209.104458 
L 551.067876 -209.104458 
z
" style="stroke: #cc2222; stroke-opacity: 0.22"/>
    </defs>
    <g clip-path="url(#pa5fa934f30)">
     <use xlink:href="#mba797d84d8" x="0" y="238.79952" style="fill: #cc2222; fill-opacity: 0.22; stroke: #cc2222; stroke-opacity: 0.22"/>
    </g>
   </g>
   <g id="matplotlib.axis_5">
    <g id="xtick_22">
     <g id="line2d_81">
      <path d="M 549.441847 198.657775 
L 549.441847 21.649219 
" clip-path="url(#pa5fa934f30)" style="fill: none; stroke: #b0b0b0; stroke-opacity: 0.22; stroke-width: 0.8; stroke-linecap: square"/>
     </g>
     <g id="line2d_82">
      <g>
       <use xlink:href="#m4d583b0b7e" x="549.441847" y="198.657775" style="stroke: #000000; stroke-width: 0.8"/>
      </g>
     </g>
     <g id="text_45">
      <!-- 2016 -->
      <g transform="translate(542.748553 218.138521) rotate(-25) scale(0.085 -0.085)">
       <use xlink:href="#SimHei-32"/>
       <use xlink:href="#SimHei-30" transform="translate(50 0)"/>
       <use xlink:href="#SimHei-31" transform="translate(100 0)"/>
       <use xlink:href="#SimHei-36" transform="translate(150 0)"/>
      </g>
     </g>
    </g>
    <g id="xtick_23">
     <g id="line2d_83">
      <path d="M 569.279396 198.657775 
L 569.279396 21.649219 
" clip-path="url(#pa5fa934f30)" style="fill: none; stroke: #b0b0b0; stroke-opacity: 0.22; stroke-width: 0.8; stroke-linecap: square"/>
     </g>
     <g id="line2d_84">
      <g>
       <use xlink:href="#m4d583b0b7e" x="569.279396" y="198.657775" style="stroke: #000000; stroke-width: 0.8"/>
      </g>
     </g>
     <g id="text_46">
      <!-- 2017 -->
      <g transform="translate(562.586102 218.138521) rotate(-25) scale(0.085 -0.085)">
       <use xlink:href="#SimHei-32"/>
       <use xlink:href="#SimHei-30" transform="translate(50 0)"/>
       <use xlink:href="#SimHei-31" transform="translate(100 0)"/>
       <use xlink:href="#SimHei-37" transform="translate(150 0)"/>
      </g>
     </g>
    </g>
    <g id="xtick_24">
     <g id="line2d_85">
      <path d="M 589.062744 198.657775 
L 589.062744 21.649219 
" clip-path="url(#pa5fa934f30)" style="fill: none; stroke: #b0b0b0; stroke-opacity: 0.22; stroke-width: 0.8; stroke-linecap: square"/>
     </g>
     <g id="line2d_86">
      <g>
       <use xlink:href="#m4d583b0b7e" x="589.062744" y="198.657775" style="stroke: #000000; stroke-width: 0.8"/>
      </g>
     </g>
     <g id="text_47">
      <!-- 2018 -->
      <g transform="translate(582.36945 218.138521) rotate(-25) scale(0.085 -0.085)">
       <use xlink:href="#SimHei-32"/>
       <use xlink:href="#SimHei-30" transform="translate(50 0)"/>
       <use xlink:href="#SimHei-31" transform="translate(100 0)"/>
       <use xlink:href="#SimHei-38" transform="translate(150 0)"/>
      </g>
     </g>
    </g>
    <g id="xtick_25">
     <g id="line2d_87">
      <path d="M 608.846092 198.657775 
L 608.846092 21.649219 
" clip-path="url(#pa5fa934f30)" style="fill: none; stroke: #b0b0b0; stroke-opacity: 0.22; stroke-width: 0.8; stroke-linecap: square"/>
     </g>
     <g id="line2d_88">
      <g>
       <use xlink:href="#m4d583b0b7e" x="608.846092" y="198.657775" style="stroke: #000000; stroke-width: 0.8"/>
      </g>
     </g>
     <g id="text_48">
      <!-- 2019 -->
      <g transform="translate(602.152797 218.138521) rotate(-25) scale(0.085 -0.085)">
       <use xlink:href="#SimHei-32"/>
       <use xlink:href="#SimHei-30" transform="translate(50 0)"/>
       <use xlink:href="#SimHei-31" transform="translate(100 0)"/>
       <use xlink:href="#SimHei-39" transform="translate(150 0)"/>
      </g>
     </g>
    </g>
    <g id="xtick_26">
     <g id="line2d_89">
      <path d="M 628.62944 198.657775 
L 628.62944 21.649219 
" clip-path="url(#pa5fa934f30)" style="fill: none; stroke: #b0b0b0; stroke-opacity: 0.22; stroke-width: 0.8; stroke-linecap: square"/>
     </g>
     <g id="line2d_90">
      <g>
       <use xlink:href="#m4d583b0b7e" x="628.62944" y="198.657775" style="stroke: #000000; stroke-width: 0.8"/>
      </g>
     </g>
     <g id="text_49">
      <!-- 2020 -->
      <g transform="translate(621.936145 218.138521) rotate(-25) scale(0.085 -0.085)">
       <use xlink:href="#SimHei-32"/>
       <use xlink:href="#SimHei-30" transform="translate(50 0)"/>
       <use xlink:href="#SimHei-32" transform="translate(100 0)"/>
       <use xlink:href="#SimHei-30" transform="translate(150 0)"/>
      </g>
     </g>
    </g>
    <g id="xtick_27">
     <g id="line2d_91">
      <path d="M 648.466988 198.657775 
L 648.466988 21.649219 
" clip-path="url(#pa5fa934f30)" style="fill: none; stroke: #b0b0b0; stroke-opacity: 0.22; stroke-width: 0.8; stroke-linecap: square"/>
     </g>
     <g id="line2d_92">
      <g>
       <use xlink:href="#m4d583b0b7e" x="648.466988" y="198.657775" style="stroke: #000000; stroke-width: 0.8"/>
      </g>
     </g>
     <g id="text_50">
      <!-- 2021 -->
      <g transform="translate(641.773694 218.138521) rotate(-25) scale(0.085 -0.085)">
       <use xlink:href="#SimHei-32"/>
       <use xlink:href="#SimHei-30" transform="translate(50 0)"/>
       <use xlink:href="#SimHei-32" transform="translate(100 0)"/>
       <use xlink:href="#SimHei-31" transform="translate(150 0)"/>
      </g>
     </g>
    </g>
    <g id="xtick_28">
     <g id="line2d_93">
      <path d="M 668.250336 198.657775 
L 668.250336 21.649219 
" clip-path="url(#pa5fa934f30)" style="fill: none; stroke: #b0b0b0; stroke-opacity: 0.22; stroke-width: 0.8; stroke-linecap: square"/>
     </g>
     <g id="line2d_94">
      <g>
       <use xlink:href="#m4d583b0b7e" x="668.250336" y="198.657775" style="stroke: #000000; stroke-width: 0.8"/>
      </g>
     </g>
     <g id="text_51">
      <!-- 2022 -->
      <g transform="translate(661.557042 218.138521) rotate(-25) scale(0.085 -0.085)">
       <use xlink:href="#SimHei-32"/>
       <use xlink:href="#SimHei-30" transform="translate(50 0)"/>
       <use xlink:href="#SimHei-32" transform="translate(100 0)"/>
       <use xlink:href="#SimHei-32" transform="translate(150 0)"/>
      </g>
     </g>
    </g>
    <g id="xtick_29">
     <g id="line2d_95">
      <path d="M 688.033684 198.657775 
L 688.033684 21.649219 
" clip-path="url(#pa5fa934f30)" style="fill: none; stroke: #b0b0b0; stroke-opacity: 0.22; stroke-width: 0.8; stroke-linecap: square"/>
     </g>
     <g id="line2d_96">
      <g>
       <use xlink:href="#m4d583b0b7e" x="688.033684" y="198.657775" style="stroke: #000000; stroke-width: 0.8"/>
      </g>
     </g>
     <g id="text_52">
      <!-- 2023 -->
      <g transform="translate(681.34039 218.138521) rotate(-25) scale(0.085 -0.085)">
       <use xlink:href="#SimHei-32"/>
       <use xlink:href="#SimHei-30" transform="translate(50 0)"/>
       <use xlink:href="#SimHei-32" transform="translate(100 0)"/>
       <use xlink:href="#SimHei-33" transform="translate(150 0)"/>
      </g>
     </g>
    </g>
    <g id="xtick_30">
     <g id="line2d_97">
      <path d="M 707.817032 198.657775 
L 707.817032 21.649219 
" clip-path="url(#pa5fa934f30)" style="fill: none; stroke: #b0b0b0; stroke-opacity: 0.22; stroke-width: 0.8; stroke-linecap: square"/>
     </g>
     <g id="line2d_98">
      <g>
       <use xlink:href="#m4d583b0b7e" x="707.817032" y="198.657775" style="stroke: #000000; stroke-width: 0.8"/>
      </g>
     </g>
     <g id="text_53">
      <!-- 2024 -->
      <g transform="translate(701.123737 218.138521) rotate(-25) scale(0.085 -0.085)">
       <use xlink:href="#SimHei-32"/>
       <use xlink:href="#SimHei-30" transform="translate(50 0)"/>
       <use xlink:href="#SimHei-32" transform="translate(100 0)"/>
       <use xlink:href="#SimHei-34" transform="translate(150 0)"/>
      </g>
     </g>
    </g>
    <g id="xtick_31">
     <g id="line2d_99">
      <path d="M 727.654581 198.657775 
L 727.654581 21.649219 
" clip-path="url(#pa5fa934f30)" style="fill: none; stroke: #b0b0b0; stroke-opacity: 0.22; stroke-width: 0.8; stroke-linecap: square"/>
     </g>
     <g id="line2d_100">
      <g>
       <use xlink:href="#m4d583b0b7e" x="727.654581" y="198.657775" style="stroke: #000000; stroke-width: 0.8"/>
      </g>
     </g>
     <g id="text_54">
      <!-- 2025 -->
      <g transform="translate(720.961286 218.138521) rotate(-25) scale(0.085 -0.085)">
       <use xlink:href="#SimHei-32"/>
       <use xlink:href="#SimHei-30" transform="translate(50 0)"/>
       <use xlink:href="#SimHei-32" transform="translate(100 0)"/>
       <use xlink:href="#SimHei-35" transform="translate(150 0)"/>
      </g>
     </g>
    </g>
    <g id="xtick_32">
     <g id="line2d_101">
      <path d="M 747.437928 198.657775 
L 747.437928 21.649219 
" clip-path="url(#pa5fa934f30)" style="fill: none; stroke: #b0b0b0; stroke-opacity: 0.22; stroke-width: 0.8; stroke-linecap: square"/>
     </g>
     <g id="line2d_102">
      <g>
       <use xlink:href="#m4d583b0b7e" x="747.437928" y="198.657775" style="stroke: #000000; stroke-width: 0.8"/>
      </g>
     </g>
     <g id="text_55">
      <!-- 2026 -->
      <g transform="translate(740.744634 218.138521) rotate(-25) scale(0.085 -0.085)">
       <use xlink:href="#SimHei-32"/>
       <use xlink:href="#SimHei-30" transform="translate(50 0)"/>
       <use xlink:href="#SimHei-32" transform="translate(100 0)"/>
       <use xlink:href="#SimHei-36" transform="translate(150 0)"/>
      </g>
     </g>
    </g>
    <g id="text_56">
     <!-- 日期 -->
     <g transform="translate(639.725802 230.41202) scale(0.095 -0.095)">
      <use xlink:href="#SimHei-65e5"/>
      <use xlink:href="#SimHei-671f" transform="translate(100 0)"/>
     </g>
    </g>
   </g>
   <g id="matplotlib.axis_6">
    <g id="ytick_18">
     <g id="line2d_103">
      <path d="M 541.252083 185.672706 
L 757.19952 185.672706 
" clip-path="url(#pa5fa934f30)" style="fill: none; stroke: #b0b0b0; stroke-opacity: 0.22; stroke-width: 0.8; stroke-linecap: square"/>
     </g>
     <g id="line2d_104">
      <g>
       <use xlink:href="#m1a3a2ddd9f" x="541.252083" y="185.672706" style="stroke: #000000; stroke-width: 0.8"/>
      </g>
     </g>
     <g id="text_57">
      <!-- -35 -->
      <g transform="translate(521.502083 188.594581) scale(0.085 -0.085)">
       <use xlink:href="#SimHei-2d"/>
       <use xlink:href="#SimHei-33" transform="translate(50 0)"/>
       <use xlink:href="#SimHei-35" transform="translate(100 0)"/>
      </g>
     </g>
    </g>
    <g id="ytick_19">
     <g id="line2d_105">
      <path d="M 541.252083 163.390185 
L 757.19952 163.390185 
" clip-path="url(#pa5fa934f30)" style="fill: none; stroke: #b0b0b0; stroke-opacity: 0.22; stroke-width: 0.8; stroke-linecap: square"/>
     </g>
     <g id="line2d_106">
      <g>
       <use xlink:href="#m1a3a2ddd9f" x="541.252083" y="163.390185" style="stroke: #000000; stroke-width: 0.8"/>
      </g>
     </g>
     <g id="text_58">
      <!-- -30 -->
      <g transform="translate(521.502083 166.31206) scale(0.085 -0.085)">
       <use xlink:href="#SimHei-2d"/>
       <use xlink:href="#SimHei-33" transform="translate(50 0)"/>
       <use xlink:href="#SimHei-30" transform="translate(100 0)"/>
      </g>
     </g>
    </g>
    <g id="ytick_20">
     <g id="line2d_107">
      <path d="M 541.252083 141.107665 
L 757.19952 141.107665 
" clip-path="url(#pa5fa934f30)" style="fill: none; stroke: #b0b0b0; stroke-opacity: 0.22; stroke-width: 0.8; stroke-linecap: square"/>
     </g>
     <g id="line2d_108">
      <g>
       <use xlink:href="#m1a3a2ddd9f" x="541.252083" y="141.107665" style="stroke: #000000; stroke-width: 0.8"/>
      </g>
     </g>
     <g id="text_59">
      <!-- -25 -->
      <g transform="translate(521.502083 144.02954) scale(0.085 -0.085)">
       <use xlink:href="#SimHei-2d"/>
       <use xlink:href="#SimHei-32" transform="translate(50 0)"/>
       <use xlink:href="#SimHei-35" transform="translate(100 0)"/>
      </g>
     </g>
    </g>
    <g id="ytick_21">
     <g id="line2d_109">
      <path d="M 541.252083 118.825144 
L 757.19952 118.825144 
" clip-path="url(#pa5fa934f30)" style="fill: none; stroke: #b0b0b0; stroke-opacity: 0.22; stroke-width: 0.8; stroke-linecap: square"/>
     </g>
     <g id="line2d_110">
      <g>
       <use xlink:href="#m1a3a2ddd9f" x="541.252083" y="118.825144" style="stroke: #000000; stroke-width: 0.8"/>
      </g>
     </g>
     <g id="text_60">
      <!-- -20 -->
      <g transform="translate(521.502083 121.747019) scale(0.085 -0.085)">
       <use xlink:href="#SimHei-2d"/>
       <use xlink:href="#SimHei-32" transform="translate(50 0)"/>
       <use xlink:href="#SimHei-30" transform="translate(100 0)"/>
      </g>
     </g>
    </g>
    <g id="ytick_22">
     <g id="line2d_111">
      <path d="M 541.252083 96.542624 
L 757.19952 96.542624 
" clip-path="url(#pa5fa934f30)" style="fill: none; stroke: #b0b0b0; stroke-opacity: 0.22; stroke-width: 0.8; stroke-linecap: square"/>
     </g>
     <g id="line2d_112">
      <g>
       <use xlink:href="#m1a3a2ddd9f" x="541.252083" y="96.542624" style="stroke: #000000; stroke-width: 0.8"/>
      </g>
     </g>
     <g id="text_61">
      <!-- -15 -->
      <g transform="translate(521.502083 99.464499) scale(0.085 -0.085)">
       <use xlink:href="#SimHei-2d"/>
       <use xlink:href="#SimHei-31" transform="translate(50 0)"/>
       <use xlink:href="#SimHei-35" transform="translate(100 0)"/>
      </g>
     </g>
    </g>
    <g id="ytick_23">
     <g id="line2d_113">
      <path d="M 541.252083 74.260103 
L 757.19952 74.260103 
" clip-path="url(#pa5fa934f30)" style="fill: none; stroke: #b0b0b0; stroke-opacity: 0.22; stroke-width: 0.8; stroke-linecap: square"/>
     </g>
     <g id="line2d_114">
      <g>
       <use xlink:href="#m1a3a2ddd9f" x="541.252083" y="74.260103" style="stroke: #000000; stroke-width: 0.8"/>
      </g>
     </g>
     <g id="text_62">
      <!-- -10 -->
      <g transform="translate(521.502083 77.181978) scale(0.085 -0.085)">
       <use xlink:href="#SimHei-2d"/>
       <use xlink:href="#SimHei-31" transform="translate(50 0)"/>
       <use xlink:href="#SimHei-30" transform="translate(100 0)"/>
      </g>
     </g>
    </g>
    <g id="ytick_24">
     <g id="line2d_115">
      <path d="M 541.252083 51.977583 
L 757.19952 51.977583 
" clip-path="url(#pa5fa934f30)" style="fill: none; stroke: #b0b0b0; stroke-opacity: 0.22; stroke-width: 0.8; stroke-linecap: square"/>
     </g>
     <g id="line2d_116">
      <g>
       <use xlink:href="#m1a3a2ddd9f" x="541.252083" y="51.977583" style="stroke: #000000; stroke-width: 0.8"/>
      </g>
     </g>
     <g id="text_63">
      <!-- -5 -->
      <g transform="translate(525.752083 54.899458) scale(0.085 -0.085)">
       <use xlink:href="#SimHei-2d"/>
       <use xlink:href="#SimHei-35" transform="translate(50 0)"/>
      </g>
     </g>
    </g>
    <g id="ytick_25">
     <g id="line2d_117">
      <path d="M 541.252083 29.695062 
L 757.19952 29.695062 
" clip-path="url(#pa5fa934f30)" style="fill: none; stroke: #b0b0b0; stroke-opacity: 0.22; stroke-width: 0.8; stroke-linecap: square"/>
     </g>
     <g id="line2d_118">
      <g>
       <use xlink:href="#m1a3a2ddd9f" x="541.252083" y="29.695062" style="stroke: #000000; stroke-width: 0.8"/>
      </g>
     </g>
     <g id="text_64">
      <!-- 0 -->
      <g transform="translate(530.002083 32.616937) scale(0.085 -0.085)">
       <use xlink:href="#SimHei-30"/>
      </g>
     </g>
    </g>
    <g id="text_65">
     <!-- % -->
     <g transform="translate(516.314583 112.528497) rotate(-90) scale(0.095 -0.095)">
      <use xlink:href="#SimHei-25"/>
     </g>
    </g>
   </g>
   <g id="line2d_119">
    <path d="M 551.067876 29.695062 
L 552.639704 29.695062 
L 554.319933 77.055504 
L 555.945962 34.396356 
L 557.626191 29.695062 
L 559.25222 29.695062 
L 560.932449 30.557903 
L 562.612679 29.695062 
L 564.238707 35.044394 
L 565.918937 47.944781 
L 567.544966 49.980799 
L 569.225195 46.577472 
L 570.905425 35.410652 
L 572.423051 49.553074 
L 574.103281 47.033101 
L 575.729309 34.274041 
L 577.409539 30.226848 
L 579.035568 29.695062 
L 580.715797 39.785273 
L 582.396027 93.675364 
L 584.022055 85.236504 
L 585.702285 82.327616 
L 587.328313 82.660716 
L 589.008543 80.057056 
L 590.688773 72.78666 
L 592.206399 29.695062 
L 593.886629 29.695062 
L 595.512657 29.695062 
L 597.192887 54.424394 
L 598.818915 44.852222 
L 600.499145 78.870166 
L 602.179375 49.982433 
L 603.805403 29.695062 
L 605.485633 29.695062 
L 607.111661 36.689977 
L 608.791891 32.889603 
L 610.47212 45.851089 
L 611.989747 76.384547 
L 613.669977 57.420435 
L 615.296005 29.695062 
L 616.976235 29.695062 
L 618.602263 29.695062 
L 620.282493 34.303635 
L 621.962722 29.695062 
L 623.588751 29.695062 
L 625.26898 29.695062 
L 626.895009 29.695062 
L 628.575239 36.26516 
L 630.255468 29.695062 
L 631.827296 29.695062 
L 633.507525 29.695062 
L 635.133554 29.695062 
L 636.813783 48.566624 
L 638.439812 29.695062 
L 640.120042 45.530255 
L 641.800271 61.30422 
L 643.4263 49.090725 
L 645.106529 43.583522 
L 646.732558 29.695062 
L 648.412787 29.695062 
L 650.093017 35.792614 
L 651.610644 47.741978 
L 653.290873 53.925341 
L 654.916902 89.04957 
L 656.597131 96.588955 
L 658.22316 57.359278 
L 659.903389 58.579103 
L 661.583619 51.451583 
L 663.209648 114.085978 
L 664.889877 102.66585 
L 666.515906 131.851707 
L 668.196135 144.389043 
L 669.876365 96.392134 
L 671.393991 101.934747 
L 673.074221 75.06498 
L 674.70025 76.922571 
L 676.380479 91.066615 
L 678.006508 97.054882 
L 679.686737 67.775572 
L 681.366967 66.475861 
L 682.992995 29.695062 
L 684.673225 37.728325 
L 686.299253 32.14042 
L 687.979483 29.695062 
L 689.659713 29.695062 
L 691.177339 43.828415 
L 692.857569 60.369528 
L 694.483597 52.72653 
L 696.163827 60.912387 
L 697.789855 41.605348 
L 699.470085 29.698228 
L 701.150315 66.754074 
L 702.776343 92.463696 
L 704.456573 124.738845 
L 706.082601 118.946185 
L 707.762831 77.698213 
L 709.44306 88.600503 
L 711.014888 86.129601 
L 712.695118 119.171969 
L 714.321146 145.119906 
L 716.001376 188.321156 
L 717.627404 190.611931 
L 719.307634 178.106774 
L 720.987863 184.970639 
L 722.613892 158.702599 
L 724.294121 154.127166 
L 725.92015 157.727112 
L 727.60038 152.130418 
L 729.280609 150.244771 
L 730.798236 129.635084 
L 732.478465 142.755658 
L 734.104494 165.681936 
L 735.784723 149.210334 
L 737.410752 144.58138 
L 739.090982 124.909305 
L 740.771211 102.27084 
L 742.39724 113.965782 
L 744.077469 89.570994 
L 745.703498 62.661664 
L 747.383727 29.695062 
" clip-path="url(#pa5fa934f30)" style="fill: none; stroke: #cc2222; stroke-width: 1.3; stroke-linecap: square"/>
   </g>
   <g id="patch_9">
    <path d="M 541.252083 198.657775 
L 541.252083 21.649219 
" style="fill: none; stroke: #000000; stroke-width: 0.8; stroke-linejoin: miter; stroke-linecap: square"/>
   </g>
   <g id="patch_10">
    <path d="M 541.252083 198.657775 
L 757.19952 198.657775 
" style="fill: none; stroke: #000000; stroke-width: 0.8; stroke-linejoin: miter; stroke-linecap: square"/>
   </g>
   <g id="text_66">
    <!-- (c) 回撤 -->
    <g transform="translate(628.225802 15.649219) scale(0.105 -0.105)">
     <defs>
      <path id="SimHei-63" d="M 2850 1250 
Q 2850 725 2487 400 
Q 2125 75 1575 75 
Q 1025 75 625 462 
Q 225 850 225 1525 
Q 225 2200 625 2587 
Q 1025 2975 1575 2975 
Q 2125 2975 2450 2687 
Q 2775 2400 2775 2000 
L 2225 2000 
Q 2200 2300 2012 2412 
Q 1825 2525 1575 2525 
Q 1275 2525 1025 2287 
Q 775 2050 775 1525 
Q 775 1000 1025 762 
Q 1275 525 1575 525 
Q 1900 525 2100 700 
Q 2300 875 2300 1250 
L 2850 1250 
z
" transform="scale(0.015625)"/>
      <path id="SimHei-56de" d="M 5650 4850 
Q 5625 4125 5625 3450 
L 5625 950 
Q 5625 300 5650 -375 
L 5150 -375 
L 5150 100 
L 1175 100 
L 1175 -375 
L 700 -375 
Q 725 250 725 950 
L 725 3450 
Q 725 4100 700 4850 
L 5650 4850 
z
M 5150 500 
L 5150 4425 
L 1200 4425 
L 1200 500 
L 5150 500 
z
M 4325 3500 
Q 4300 3125 4300 2750 
L 4300 2175 
Q 4300 1850 4325 1400 
L 2025 1400 
Q 2050 1850 2050 2175 
L 2050 2800 
Q 2050 3150 2025 3500 
L 4325 3500 
z
M 3825 1825 
L 3825 3100 
L 2500 3100 
L 2500 1825 
L 3825 1825 
z
" transform="scale(0.015625)"/>
      <path id="SimHei-64a4" d="M 4300 2075 
Q 4150 2350 3975 2500 
Q 4250 2975 4437 3800 
Q 4625 4625 4675 5200 
Q 4950 5125 5200 5075 
Q 5150 4950 5075 4675 
Q 5000 4400 4925 4075 
Q 5800 4075 6175 4100 
L 6175 3675 
Q 5950 3700 5775 3700 
Q 5750 2775 5675 2012 
Q 5600 1250 5350 600 
Q 5675 200 6175 -75 
Q 5975 -275 5850 -525 
Q 5300 -50 5100 225 
Q 4775 -200 4300 -575 
Q 4175 -375 3925 -200 
Q 4475 75 4825 600 
Q 4575 1200 4400 2300 
L 4300 2075 
z
M 3975 2550 
Q 3925 2225 3925 1900 
L 3925 50 
Q 3925 -250 3750 -312 
Q 3575 -375 3175 -450 
Q 3125 -200 3000 50 
Q 3300 50 3400 62 
Q 3500 75 3500 300 
L 3500 650 
L 2500 650 
L 2500 -425 
L 2050 -425 
Q 2075 -50 2075 325 
L 2075 1900 
Q 2075 2225 2050 2550 
L 3975 2550 
z
M 1000 3875 
Q 1000 4700 975 5200 
L 1450 5200 
Q 1425 4800 1425 3875 
Q 1650 3875 1900 3900 
L 1900 3475 
Q 1650 3500 1425 3500 
L 1425 2550 
Q 1625 2625 1825 2750 
Q 1825 2525 1850 2250 
Q 1550 2125 1425 2050 
L 1425 250 
Q 1425 -200 1262 -300 
Q 1100 -400 600 -500 
Q 550 -250 400 50 
Q 775 50 887 75 
Q 1000 100 1000 375 
L 1000 1850 
Q 750 1725 475 1500 
Q 375 1725 200 2000 
Q 500 2075 1000 2325 
L 1000 3500 
Q 675 3500 325 3475 
L 325 3900 
Q 675 3875 1000 3875 
z
M 3550 4325 
Q 3875 4325 4175 4350 
L 4175 3925 
Q 3875 3950 3025 3950 
Q 2800 3500 2600 3225 
L 3525 3325 
Q 3425 3525 3350 3625 
Q 3475 3675 3700 3800 
Q 3850 3525 4125 2950 
Q 3950 2875 3750 2775 
Q 3700 2950 3650 3025 
Q 3200 2975 2750 2912 
Q 2300 2850 2100 2775 
Q 2000 3050 1950 3200 
Q 2225 3250 2350 3462 
Q 2475 3675 2575 3950 
Q 2325 3950 1975 3925 
L 1975 4350 
Q 2400 4325 2775 4325 
L 3550 4325 
z
M 5075 1025 
Q 5200 1400 5275 2237 
Q 5350 3075 5350 3700 
L 4850 3700 
Q 4750 3225 4675 2950 
Q 4750 1900 5075 1025 
z
M 3500 1050 
L 3500 1425 
L 2500 1425 
L 2500 1050 
L 3500 1050 
z
M 3500 1775 
L 3500 2150 
L 2500 2150 
L 2500 1775 
L 3500 1775 
z
M 2950 5225 
Q 3175 4975 3425 4600 
Q 3225 4500 3050 4350 
Q 2775 4800 2625 4975 
Q 2825 5100 2950 5225 
z
" transform="scale(0.015625)"/>
     </defs>
     <use xlink:href="#SimHei-28"/>
     <use xlink:href="#SimHei-63" transform="translate(50 0)"/>
     <use xlink:href="#SimHei-29" transform="translate(100 0)"/>
     <use xlink:href="#SimHei-20" transform="translate(150 0)"/>
     <use xlink:href="#SimHei-56de" transform="translate(200 0)"/>
     <use xlink:href="#SimHei-64a4" transform="translate(300 0)"/>
    </g>
   </g>
  </g>
 </g>
 <defs>
  <clipPath id="p8ed00891f3">
   <rect x="38.66875" y="21.649219" width="215.947437" height="177.008556"/>
  </clipPath>
  <clipPath id="p3cfe24ba67">
   <rect x="287.835417" y="21.649219" width="215.947437" height="177.008556"/>
  </clipPath>
  <clipPath id="pa5fa934f30">
   <rect x="541.252083" y="21.649219" width="215.947437" height="177.008556"/>
  </clipPath>
 </defs>
</svg>
